<?xml version="1.0" encoding="utf-8"?>
<!-- Generator: Adobe Illustrator 24.1.1, SVG Export Plug-In . SVG Version: 6.00 Build 0)  -->
<svg version="1.1" xmlns="http://www.w3.org/2000/svg" xmlns:xlink="http://www.w3.org/1999/xlink" x="0px" y="0px"
	 viewBox="0 0 224 52" enable-background="new 0 0 224 52" xml:space="preserve">
<path d="M1.14,11.75c0.57-1.67,1.02-4.4,1.17-6.35l0.97,0.15c-0.1,1.9-0.5,4.72-1.15,6.52L1.14,11.75z M4.16,0.71h1.13V23.3H4.16
	V0.71z M6.78,4.48c0.55,1.15,1.13,2.62,1.35,3.5l-0.95,0.5c-0.23-0.92-0.77-2.5-1.3-3.65L6.78,4.48z M24.01,8.88V9.9H7.78V8.88h7.42
	V6.73H9.08V5.76h6.12V3.81H8.53v-1h6.67v-2.1h1.2v2.1h6.9v1h-6.9v1.95h6.3v0.97h-6.3v2.15H24.01z M21.88,21.7
	c0,0.72-0.17,1.07-0.72,1.27c-0.6,0.2-1.65,0.2-3.45,0.17c-0.05-0.27-0.23-0.72-0.4-1.05c1.42,0.05,2.62,0.05,2.95,0.03
	c0.38-0.03,0.48-0.13,0.48-0.45V19.3h-9.92v3.97H9.66V11.63h12.22V21.7z M10.81,12.65v2.27h9.92v-2.27H10.81z M20.73,18.3v-2.37
	h-9.92v2.37H20.73z"/>
<path d="M32.51,7.51h4.87v1.1h-10.9v-1.1h4.9V4.56h-4.02v-1.1h4.02V0.68h1.13v2.77h3.9v1.1h-3.9V7.51z M37.11,12.55v1.08h-4.6v3.17
	h4.25v1.1h-4.25v5.37h-1.13V17.9h-4.37v-1.1h4.37v-3.17h-4.65v-1.08H37.11z M29.26,8.68c0.6,1.13,1.13,2.65,1.25,3.55l-0.98,0.32
	c-0.15-0.97-0.67-2.45-1.22-3.6L29.26,8.68z M35.83,8.96c-0.5,1.22-1.05,2.62-1.55,3.57l-0.95-0.33c0.47-0.95,1.1-2.52,1.37-3.55
	L35.83,8.96z M48.33,10.53c-0.57,2.97-1.67,5.87-3.27,8.27c1.25,1.5,2.67,2.72,4.25,3.47c-0.28,0.25-0.67,0.73-0.9,1.03
	c-1.5-0.83-2.87-2.02-4.05-3.47c-1.07,1.4-2.32,2.6-3.75,3.52c-0.2-0.25-0.55-0.6-0.85-0.8c1.5-0.95,2.77-2.22,3.85-3.7
	c-1.52-2.15-2.72-4.75-3.55-7.5h-0.52v12h-1.15V1.91h9.37v4.85c0,0.72-0.15,1.1-0.85,1.3c-0.63,0.2-1.8,0.2-3.8,0.2
	c-0.05-0.32-0.23-0.75-0.42-1.07c1.77,0.05,3,0.05,3.42,0c0.42-0.03,0.5-0.1,0.5-0.4V3.03h-7.07v7.25h7.77l0.22-0.05L48.33,10.53z
	 M41.16,11.35c0.73,2.35,1.8,4.57,3.12,6.47c1.25-2,2.12-4.25,2.65-6.47H41.16z"/>
<path d="M70.16,9.9c0.52,0,1.17-0.02,1.75-0.1v1.35c-0.5-0.02-1.2-0.05-1.75-0.05h-7.22c-0.05,2.75-0.4,5.17-1.45,7.1
	c-0.92,1.62-2.77,3.35-4.85,4.4l-1.2-0.9c2.02-0.88,3.85-2.32,4.82-3.97c1.15-1.87,1.32-4.1,1.37-6.62h-7.82
	c-0.77,0-1.38,0.03-2.05,0.08V9.8c0.65,0.05,1.27,0.1,2.05,0.1H70.16z M56.83,4.91c-0.8,0-1.47,0.02-2.05,0.08v-1.4
	c0.65,0.08,1.22,0.13,2,0.13h8.95c0.63,0,1.45-0.02,2.1-0.13v1.4c-0.65-0.05-1.47-0.08-2.1-0.08H56.83z M70.13,5.23
	c-0.48-1-1.37-2.5-2.05-3.45l0.95-0.43c0.62,0.9,1.52,2.38,2.07,3.42L70.13,5.23z M71.63,0.43c0.67,0.92,1.65,2.45,2.15,3.4
	l-0.97,0.45c-0.55-1.1-1.37-2.47-2.1-3.42L71.63,0.43z"/>
<path d="M93.91,8.11c1,0,1.87-0.1,2.02-0.13v1.42c-0.1-0.03-1.02-0.08-2.02-0.08h-3.27v0.9c0,6.92-1.4,10.15-6.9,12.65l-1.1-1.03
	c4.37-1.77,6.75-3.92,6.75-11.42v-1.1h-7.82v4.42c0,0.8,0.08,1.95,0.08,2.05h-1.45c0.02-0.1,0.13-1.2,0.13-2.05V9.33h-3.05
	c-1,0-2.27,0.08-2.37,0.08V7.98c0.08,0.02,1.42,0.13,2.37,0.13h3.05V4.48c0-0.73-0.1-1.45-0.1-1.55h1.45
	c-0.02,0.1-0.1,0.75-0.1,1.52v3.65h7.82V4.68c0-0.95-0.1-1.77-0.13-1.87h1.5c-0.02,0.1-0.13,0.92-0.13,1.87v3.42H93.91z M93.76,6.48
	c-0.38-1.05-1.05-2.62-1.52-3.52l0.9-0.3c0.48,0.85,1.2,2.47,1.57,3.5L93.76,6.48z M95.58,1.91c0.48,0.88,1.17,2.45,1.57,3.5
	l-0.95,0.32c-0.42-1.12-1.02-2.62-1.55-3.52L95.58,1.91z"/>
<path d="M117.88,3.36c-1.6,1.63-4.15,3.8-6.77,5.45v10.97c0,0.83,0.05,1.88,0.13,2.3h-1.55c0.05-0.42,0.1-1.47,0.1-2.3V9.58
	c-2.67,1.52-6.32,3.1-9.85,4.17l-0.75-1.27c4.07-1.03,8.3-2.92,11.07-4.62c2.52-1.58,5.17-3.77,6.55-5.5L117.88,3.36z"/>
<path d="M132.41,16.5c3.6-2.35,6.52-5.97,7.87-8.9l0.78,1.32c-1.6,2.95-4.25,6.32-7.9,8.67c-2.47,1.6-5.6,3.22-10.15,4.1l-0.83-1.3
	C126.78,19.7,130.06,18.03,132.41,16.5z M130.03,8.68l-0.97,0.98c-1.25-1.23-4.32-3.9-6.2-5.12l0.88-0.92
	C125.51,4.78,128.71,7.38,130.03,8.68z"/>
<path d="M143.26,2.16h8.6v1.13h-4.02c-0.43,2.3-0.98,4.52-1.7,6.5h5.2v10.35h-5.17v2.08h-1.1v-9.85c-0.45,0.9-0.95,1.72-1.5,2.5
	c-0.1-0.27-0.45-0.85-0.7-1.1c1.88-2.52,3.07-6.35,3.8-10.47h-3.4V2.16z M146.16,10.9V19h4.07v-8.1H146.16z M165.68,12.25h-2.95
	v11.07h-1.15V12.25h-4.82c-0.07,3.92-0.63,8.05-3.57,11.15c-0.22-0.22-0.67-0.55-1-0.7c2.83-2.92,3.35-6.87,3.42-10.45h-3.02V11.1
	h3.02V3.28h-2.27V2.13h11.85v1.15h-2.45v7.82h2.95V12.25z M161.58,11.1V3.28h-4.82v7.82H161.58z"/>
<path d="M188.53,22c0.8,0,0.92-0.45,1-3.8c0.25,0.2,0.78,0.4,1.13,0.52c-0.13,3.6-0.45,4.45-2,4.45h-2.8
	c-1.57,0-2.03-0.33-2.03-1.88v-6.4h-5.47c-0.4,3-2.2,6.32-9.42,8.45c-0.15-0.25-0.52-0.67-0.83-0.95c6.77-1.97,8.57-4.92,9-7.5
	h-7.42v-1.12h7.55v-0.43v-2.82h1.2v2.85v0.4h6.6v7.52c0,0.6,0.15,0.7,0.92,0.7H188.53z M176.96,4.21c-0.57,4.3-2.22,6.6-7.7,7.82
	c-0.13-0.3-0.43-0.77-0.65-1c5.15-1.02,6.6-3.07,7.1-6.82h-5.6v3h-1.2V3.08h9.82V0.66h1.22v2.42h10.02v3.95h-1.22V4.21h-6.1v5.02
	c0,0.53,0.15,0.63,1.17,0.63h3.78c0.77,0,0.9-0.2,0.95-1.97c0.28,0.23,0.75,0.4,1.13,0.48c-0.15,2.1-0.53,2.62-1.95,2.62h-3.95
	c-1.83,0-2.3-0.3-2.3-1.75V4.21H176.96z"/>
<path d="M215.43,21.48v1.13h-22.04v-1.13h10.32v-3.85h-8v-1.1h8v-3.27c-3.17,0.13-6.12,0.2-8.37,0.28l-0.08-1.17
	c1,0,2.15-0.03,3.42-0.08c0.92-1.25,2.02-2.97,2.77-4.37h-5.27v-1.1h16.57v1.1h-9.92c-0.85,1.42-1.9,3.07-2.87,4.35
	c3.2-0.07,6.97-0.2,10.72-0.32c-1.02-0.83-2.15-1.63-3.2-2.25l0.85-0.67c2.22,1.35,4.82,3.37,6.05,4.85l-0.88,0.73
	c-0.4-0.5-0.97-1.05-1.62-1.65c-2.32,0.13-4.7,0.2-6.97,0.3v3.3h8.2v1.1h-8.2v3.85H215.43z M194.96,6.98h-1.17V2.73h9.92V0.68h1.2
	v2.05h10.1v4.25h-1.2V3.86h-18.85V6.98z"/>
<path d="M4.1,35.83h0.96V47.5H4.1V35.83z"/>
<path d="M8.35,38.97h0.77l0.11,1.3h0.03c0.86-0.85,1.74-1.52,2.91-1.52c1.78,0,2.59,1.11,2.59,3.3v5.46h-0.93v-5.33
	c0-1.78-0.56-2.59-1.87-2.59c-0.99,0-1.7,0.51-2.69,1.54v6.39H8.35V38.97z"/>
<path d="M21.23,35.59c-0.35-0.16-0.69-0.24-1.01-0.24c-0.91,0-1.31,0.67-1.31,1.87v1.74h1.94v0.79h-1.94v7.75h-0.93v-7.75H16.8
	v-0.71l1.18-0.08v-1.79c0-1.7,0.75-2.61,2.19-2.61c0.43,0,0.88,0.11,1.28,0.29L21.23,35.59z"/>
<path d="M21.73,43.24c0-2.85,1.79-4.5,3.86-4.5s3.86,1.65,3.86,4.5c0,2.83-1.79,4.47-3.86,4.47S21.73,46.08,21.73,43.24z
	 M28.48,43.24c0-2.18-1.23-3.68-2.9-3.68s-2.88,1.51-2.88,3.68c0,2.18,1.22,3.67,2.88,3.67S28.48,45.42,28.48,43.24z"/>
<path d="M31.94,38.97h0.77l0.11,1.58h0.03c0.58-1.07,1.42-1.81,2.42-1.81c0.34,0,0.59,0.05,0.86,0.19l-0.19,0.83
	c-0.29-0.11-0.45-0.14-0.78-0.14c-0.75,0-1.66,0.56-2.29,2.14v5.73h-0.93V38.97z"/>
<path d="M37.68,38.97h0.77l0.11,1.3h0.03c0.77-0.85,1.73-1.52,2.69-1.52c1.36,0,2.05,0.69,2.35,1.73c0.96-1.04,1.89-1.73,2.88-1.73
	c1.71,0,2.56,1.11,2.56,3.3v5.46h-0.93v-5.33c0-1.78-0.59-2.59-1.84-2.59c-0.77,0-1.55,0.51-2.46,1.54v6.39h-0.93v-5.33
	c0-1.78-0.58-2.59-1.84-2.59c-0.75,0-1.57,0.51-2.47,1.54v6.39h-0.93V38.97z"/>
<path d="M51.55,45.36c0-1.89,1.68-2.79,5.44-3.22c0.03-1.27-0.34-2.58-1.95-2.58c-1.12,0-2.1,0.53-2.69,0.98l-0.42-0.67
	c0.66-0.45,1.84-1.12,3.23-1.12c2.03,0,2.75,1.46,2.75,3.35v5.41h-0.78l-0.1-1.09h-0.03c-0.86,0.71-1.89,1.3-2.98,1.3
	C52.66,47.71,51.55,46.94,51.55,45.36z M56.99,45.6v-2.77c-3.36,0.38-4.51,1.17-4.51,2.48c0,1.17,0.8,1.62,1.74,1.62
	S55.99,46.48,56.99,45.6z"/>
<path d="M60.9,45.07v-5.31h-1.33v-0.71l1.36-0.08l0.11-2.46h0.78v2.46h2.45v0.79h-2.45v5.38c0,1.07,0.29,1.78,1.42,1.78
	c0.32,0,0.74-0.11,1.04-0.24l0.22,0.72c-0.5,0.18-1.04,0.32-1.42,0.32C61.41,47.71,60.9,46.65,60.9,45.07z"/>
<path d="M66.02,36.23c0-0.48,0.35-0.77,0.78-0.77c0.42,0,0.78,0.29,0.78,0.77c0,0.43-0.37,0.74-0.78,0.74
	C66.37,36.97,66.02,36.67,66.02,36.23z M66.32,38.97h0.93v8.53h-0.93V38.97z"/>
<path d="M69.73,43.24c0-2.85,1.79-4.5,3.86-4.5s3.86,1.65,3.86,4.5c0,2.83-1.79,4.47-3.86,4.47S69.73,46.08,69.73,43.24z
	 M76.48,43.24c0-2.18-1.23-3.68-2.9-3.68s-2.88,1.51-2.88,3.68c0,2.18,1.22,3.67,2.88,3.67S76.48,45.42,76.48,43.24z"/>
<path d="M79.94,38.97h0.77l0.11,1.3h0.03c0.86-0.85,1.74-1.52,2.91-1.52c1.78,0,2.59,1.11,2.59,3.3v5.46h-0.93v-5.33
	c0-1.78-0.56-2.59-1.87-2.59c-0.99,0-1.7,0.51-2.69,1.54v6.39h-0.93V38.97z"/>
<path d="M93.07,35.83h2.75c3.59,0,5.35,2.22,5.35,5.79c0,3.57-1.76,5.87-5.33,5.87h-2.77V35.83z M95.73,46.69
	c3.07,0,4.43-2.03,4.43-5.06c0-3.03-1.36-4.99-4.43-4.99h-1.7v10.05H95.73z"/>
<path d="M103.02,43.24c0-2.77,1.81-4.5,3.75-4.5c2.06,0,3.3,1.47,3.3,3.97c0,0.24-0.02,0.46-0.05,0.67h-6.05
	c0.05,2.08,1.28,3.54,3.12,3.54c0.91,0,1.63-0.29,2.27-0.74l0.35,0.69c-0.69,0.43-1.49,0.83-2.72,0.83
	C104.8,47.71,103.02,46.04,103.02,43.24z M109.22,42.65c0-2.06-0.94-3.11-2.43-3.11c-1.39,0-2.64,1.15-2.82,3.11H109.22z"/>
<path d="M111.29,46.54l0.5-0.67c0.74,0.63,1.52,1.07,2.69,1.07c1.3,0,1.95-0.74,1.95-1.62c0-1.01-1.07-1.47-2.06-1.83
	c-1.26-0.45-2.67-0.97-2.67-2.45c0-1.25,1.01-2.31,2.8-2.31c0.93,0,1.84,0.4,2.48,0.91l-0.48,0.64c-0.58-0.43-1.2-0.77-2.03-0.77
	c-1.26,0-1.84,0.71-1.84,1.47c0,0.94,0.99,1.3,1.98,1.66c1.31,0.5,2.75,0.96,2.75,2.61c0,1.31-1.04,2.43-2.93,2.43
	C113.18,47.71,112.06,47.18,111.29,46.54z"/>
<path d="M119.26,36.23c0-0.48,0.35-0.77,0.79-0.77c0.42,0,0.78,0.29,0.78,0.77c0,0.43-0.37,0.74-0.78,0.74
	C119.61,36.97,119.26,36.67,119.26,36.23z M119.57,38.97h0.93v8.53h-0.93V38.97z"/>
<path d="M122.96,49.23c0-0.75,0.5-1.5,1.28-2.03v-0.08c-0.43-0.26-0.77-0.71-0.77-1.38c0-0.74,0.56-1.3,0.94-1.59v-0.06
	c-0.54-0.45-1.09-1.3-1.09-2.32c0-1.78,1.38-3.03,3.06-3.03c0.46,0,0.86,0.11,1.14,0.22h2.91v0.77h-1.92
	c0.51,0.45,0.88,1.18,0.88,2.05c0,1.76-1.33,3.01-3.01,3.01c-0.46,0-0.99-0.13-1.38-0.35c-0.37,0.29-0.67,0.64-0.67,1.18
	c0,0.61,0.37,1.07,1.6,1.07h1.79c1.94,0,2.85,0.61,2.85,1.97c0,1.49-1.6,2.9-4.1,2.9C124.35,51.57,122.96,50.67,122.96,49.23z
	 M129.65,48.8c0-0.91-0.67-1.25-1.94-1.25h-1.75c-0.19,0-0.64-0.05-1.07-0.14c-0.74,0.51-1.06,1.14-1.06,1.71
	c0,1.04,1.01,1.74,2.75,1.74C128.45,50.86,129.65,49.82,129.65,48.8z M128.5,41.77c0-1.41-0.96-2.27-2.11-2.27
	c-1.17,0-2.13,0.86-2.13,2.27c0,1.39,0.99,2.32,2.13,2.32C127.5,44.09,128.5,43.16,128.5,41.77z"/>
<path d="M132.37,38.97h0.77l0.11,1.3h0.03c0.86-0.85,1.75-1.52,2.91-1.52c1.78,0,2.59,1.11,2.59,3.3v5.46h-0.93v-5.33
	c0-1.78-0.56-2.59-1.87-2.59c-0.99,0-1.7,0.51-2.69,1.54v6.39h-0.93V38.97z"/>
<path d="M145.5,35.83h0.96v10.84h5.31v0.83h-6.27V35.83z"/>
<path d="M153.17,45.36c0-1.89,1.68-2.79,5.44-3.22c0.03-1.27-0.34-2.58-1.95-2.58c-1.12,0-2.1,0.53-2.69,0.98l-0.42-0.67
	c0.66-0.45,1.84-1.12,3.23-1.12c2.03,0,2.75,1.46,2.75,3.35v5.41h-0.78l-0.1-1.09h-0.03c-0.87,0.71-1.89,1.3-2.98,1.3
	C154.27,47.71,153.17,46.94,153.17,45.36z M158.61,45.6v-2.77c-3.36,0.38-4.51,1.17-4.51,2.48c0,1.17,0.8,1.62,1.75,1.62
	S157.6,46.48,158.61,45.6z"/>
<path d="M163.41,46.64h-0.03l-0.11,0.86h-0.75V34.78h0.93v3.65l-0.05,1.63c0.85-0.72,1.86-1.31,2.88-1.31
	c2.27,0,3.42,1.73,3.42,4.36c0,2.91-1.76,4.61-3.76,4.61C165.14,47.71,164.19,47.29,163.41,46.64z M168.7,43.1
	c0-2.05-0.7-3.54-2.61-3.54c-0.82,0-1.7,0.48-2.66,1.36v4.93c0.88,0.77,1.79,1.04,2.42,1.04C167.52,46.89,168.7,45.39,168.7,43.1z"
	/>
<path d="M171.45,43.24c0-2.85,1.79-4.5,3.86-4.5c2.06,0,3.86,1.65,3.86,4.5c0,2.83-1.79,4.47-3.86,4.47
	C173.25,47.71,171.45,46.08,171.45,43.24z M178.21,43.24c0-2.18-1.23-3.68-2.9-3.68c-1.67,0-2.88,1.51-2.88,3.68
	c0,2.18,1.22,3.67,2.88,3.67C176.98,46.91,178.21,45.42,178.21,43.24z"/>
<path d="M181.66,38.97h0.77l0.11,1.58h0.03c0.58-1.07,1.42-1.81,2.42-1.81c0.34,0,0.59,0.05,0.86,0.19l-0.19,0.83
	c-0.29-0.11-0.45-0.14-0.78-0.14c-0.75,0-1.66,0.56-2.29,2.14v5.73h-0.93V38.97z"/>
<path d="M186.43,45.36c0-1.89,1.68-2.79,5.44-3.22c0.03-1.27-0.34-2.58-1.95-2.58c-1.12,0-2.1,0.53-2.69,0.98l-0.42-0.67
	c0.66-0.45,1.84-1.12,3.23-1.12c2.03,0,2.75,1.46,2.75,3.35v5.41h-0.78l-0.1-1.09h-0.03c-0.87,0.71-1.89,1.3-2.98,1.3
	C187.53,47.71,186.43,46.94,186.43,45.36z M191.87,45.6v-2.77c-3.36,0.38-4.51,1.17-4.51,2.48c0,1.17,0.8,1.62,1.75,1.62
	S190.86,46.48,191.87,45.6z"/>
<path d="M195.77,45.07v-5.31h-1.33v-0.71l1.36-0.08l0.11-2.46h0.79v2.46h2.45v0.79h-2.45v5.38c0,1.07,0.29,1.78,1.42,1.78
	c0.32,0,0.74-0.11,1.04-0.24l0.22,0.72c-0.5,0.18-1.04,0.32-1.42,0.32C196.29,47.71,195.77,46.65,195.77,45.07z"/>
<path d="M200.29,43.24c0-2.85,1.79-4.5,3.86-4.5c2.07,0,3.86,1.65,3.86,4.5c0,2.83-1.79,4.47-3.86,4.47
	C202.08,47.71,200.29,46.08,200.29,43.24z M207.04,43.24c0-2.18-1.23-3.68-2.9-3.68c-1.66,0-2.88,1.51-2.88,3.68
	c0,2.18,1.22,3.67,2.88,3.67C205.81,46.91,207.04,45.42,207.04,43.24z"/>
<path d="M210.49,38.97h0.77l0.11,1.58h0.03c0.58-1.07,1.42-1.81,2.42-1.81c0.34,0,0.59,0.05,0.86,0.19l-0.19,0.83
	c-0.29-0.11-0.45-0.14-0.78-0.14c-0.75,0-1.67,0.56-2.29,2.14v5.73h-0.93V38.97z"/>
<path d="M215.68,51.17l0.21-0.79c0.18,0.06,0.45,0.13,0.69,0.13c1.02,0,1.71-0.93,2.13-2.16l0.22-0.72l-3.49-8.66h1.01l1.99,5.22
	c0.27,0.74,0.59,1.63,0.9,2.4h0.08c0.26-0.77,0.53-1.66,0.77-2.4l1.75-5.22h0.94l-3.33,9.52c-0.51,1.47-1.38,2.85-2.95,2.85
	C216.25,51.34,215.92,51.28,215.68,51.17z"/>
</svg>
