<?xml version="1.0" encoding="utf-8"?>
<!-- Generator: Adobe Illustrator 24.1.3, SVG Export Plug-In . SVG Version: 6.00 Build 0)  -->
<svg version="1.1" xmlns="http://www.w3.org/2000/svg" xmlns:xlink="http://www.w3.org/1999/xlink" x="0px" y="0px"
	 viewBox="0 0 210 50" style="enable-background:new 0 0 210 50;" xml:space="preserve">
<path d="M12.5,47.7c-2.7,0-5.3-0.8-7.4-2.5c-2.1-1.7-3.8-3.9-4.8-6.4c-0.1-0.2-0.1-0.4-0.1-0.6c0-0.3,0.1-0.7,0.4-0.9
	C0.8,37.1,1.1,37,1.4,37c0.3,0,0.5,0.1,0.8,0.2c0.2,0.2,0.3,0.4,0.4,0.6c0.8,2.1,2.1,3.9,3.8,5.2c1.7,1.3,3.8,2.1,6,2.1
	c2,0.1,4-0.4,5.7-1.3c1.6-0.9,2.9-2.2,3.7-3.8c0.9-1.8,1.4-3.7,1.3-5.7V3.6c0-0.3,0.1-0.7,0.4-0.9c0.3-0.3,0.6-0.4,1-0.4
	c0.4,0,0.7,0.1,0.9,0.4C25.8,2.9,26,3.2,26,3.6v30.8c0,2.4-0.5,4.9-1.7,7c-1.1,2-2.7,3.6-4.7,4.7C17.3,47.2,14.9,47.8,12.5,47.7z
	 M67,31c0,3-0.7,5.9-2,8.5c-1.3,2.5-3.2,4.5-5.6,6c-2.4,1.5-5.2,2.3-8.1,2.2c-2.8,0-5.6-0.7-8.1-2.2c-2.4-1.5-4.3-3.5-5.7-6
	c-1.4-2.6-2.1-5.6-2.1-8.5c0-3,0.7-6,2.1-8.6c1.3-2.5,3.3-4.5,5.7-6c2.4-1.5,5.2-2.2,8.1-2.2c2.9,0,5.7,0.7,8.1,2.2
	c2.4,1.5,4.3,3.5,5.6,6C66.3,25,67,28,67,31z M64.4,31c0-2.6-0.5-5.1-1.7-7.4c-1.1-2.1-2.7-3.9-4.7-5.1c-2-1.3-4.4-1.9-6.8-1.9
	c-2.4,0-4.8,0.6-6.8,1.9c-2,1.3-3.6,3-4.7,5.1c-1.2,2.3-1.8,4.8-1.7,7.4c0,2.5,0.6,5.1,1.7,7.3c1.1,2.1,2.7,3.9,4.7,5.1
	c2,1.3,4.4,1.9,6.8,1.9c2.4,0,4.8-0.6,6.8-1.9c2-1.3,3.6-3,4.7-5.1C63.9,36,64.5,33.5,64.4,31z M77.9,45.8c0,0.3-0.1,0.7-0.4,0.9
	c-0.2,0.2-0.6,0.4-0.9,0.4c-0.4,0-0.7-0.1-0.9-0.4c-0.2-0.2-0.4-0.6-0.3-0.9V15.4c0-0.3,0.1-0.7,0.4-0.9c0.2-0.2,0.6-0.4,0.9-0.4
	c0.4,0,0.7,0.1,0.9,0.4c0.2,0.2,0.4,0.6,0.4,0.9L77.9,45.8z M76.6,9.8c-0.6,0-1.2-0.2-1.6-0.6c-0.4-0.4-0.6-0.9-0.6-1.5V7.2
	c0-0.6,0.2-1.1,0.6-1.5c0.5-0.4,1.1-0.6,1.7-0.6c0.6,0,1.1,0.2,1.5,0.6c0.4,0.4,0.6,0.9,0.6,1.5v0.5c0,0.6-0.2,1.1-0.6,1.5
	C77.8,9.6,77.2,9.8,76.6,9.8z M103.1,14.1c2.3-0.1,4.6,0.5,6.6,1.6c1.7,1,3,2.6,3.7,4.4c0.8,1.9,1.2,4,1.2,6.1v19.6
	c0,0.3-0.1,0.7-0.4,0.9c-0.2,0.2-0.6,0.4-0.9,0.4c-0.4,0-0.7-0.1-0.9-0.4c-0.2-0.2-0.4-0.6-0.4-0.9V26.5c0-1.7-0.3-3.4-0.9-5
	c-0.6-1.5-1.6-2.7-2.9-3.6c-1.6-1-3.4-1.4-5.3-1.3c-1.9,0-3.8,0.5-5.5,1.3c-1.7,0.8-3.3,2.1-4.5,3.6c-1.1,1.4-1.8,3.2-1.8,5v19.3
	c0,0.3-0.1,0.7-0.4,0.9c-0.2,0.2-0.6,0.4-0.9,0.4c-0.4,0-0.7-0.1-0.9-0.4c-0.2-0.2-0.4-0.6-0.4-0.9V16.4c0-0.3,0.1-0.7,0.4-0.9
	c0.2-0.2,0.6-0.4,0.9-0.4c0.4,0,0.7,0.1,0.9,0.4c0.2,0.2,0.4,0.6,0.4,0.9v6.3l-1.6,3.1c0-1.6,0.4-3.1,1.2-4.4
	c0.8-1.4,1.9-2.7,3.2-3.7c1.3-1.1,2.8-1.9,4.4-2.6C99.8,14.4,101.4,14.1,103.1,14.1z M166.6,15.1c0.4,0,0.7,0.1,0.9,0.4
	c0.2,0.2,0.4,0.6,0.4,0.9v18.6c0,4.1-1.2,7.2-3.5,9.3c-2.6,2.2-5.9,3.3-9.2,3.1c-3.3,0.2-6.6-0.9-9.2-3.1c-2.3-2.1-3.5-5.2-3.5-9.3
	V16.4c0-0.3,0.1-0.7,0.4-0.9c0.2-0.2,0.6-0.4,0.9-0.4c0.4,0,0.7,0.1,0.9,0.4c0.2,0.2,0.4,0.6,0.4,0.9V35c0,3.2,0.9,5.7,2.7,7.4
	c2,1.8,4.7,2.7,7.4,2.6c2.7,0.2,5.4-0.8,7.5-2.6c1.8-1.7,2.7-4.2,2.7-7.4V16.4c0-0.3,0.1-0.7,0.4-0.9
	C165.9,15.3,166.2,15.1,166.6,15.1z M176.7,42c-0.3-0.4-0.4-0.8-0.4-1.2c0-0.3,0.2-0.6,0.5-0.8c0.2-0.2,0.5-0.3,0.9-0.3
	c0.4,0,0.7,0.2,0.9,0.5c1.1,1.6,2.6,2.9,4.3,3.8c1.9,1,4,1.5,6.1,1.5c1.4,0,2.8-0.2,4.1-0.7c1.2-0.4,2.3-1.1,3.2-2.1
	c0.8-1,1.3-2.2,1.2-3.5c0.1-1.3-0.4-2.5-1.2-3.5c-0.9-0.9-1.9-1.6-3.1-2.1c-1.3-0.5-2.7-0.9-4-1.3c-1.5-0.4-2.9-0.8-4.3-1.3
	c-1.3-0.4-2.5-1.1-3.6-1.9c-1-0.7-1.8-1.6-2.4-2.7c-0.6-1.1-0.9-2.4-0.9-3.6c0-1.6,0.4-3.2,1.3-4.5c0.9-1.4,2.3-2.4,3.8-3.1
	c1.8-0.8,3.7-1.2,5.6-1.1c1.1,0,2.2,0.1,3.3,0.4c1.2,0.3,2.4,0.7,3.5,1.3c1.2,0.7,2.3,1.5,3.2,2.6c0.3,0.2,0.5,0.6,0.5,0.9
	c0,0.4-0.2,0.7-0.5,1c-0.2,0.2-0.5,0.3-0.8,0.3c-0.3,0-0.6-0.1-0.8-0.4c-1.1-1.2-2.4-2.1-3.9-2.8c-1.5-0.6-3.1-0.9-4.7-0.9
	c-1.3,0-2.7,0.2-3.9,0.7c-1.2,0.4-2.2,1.1-3,2.1c-0.8,1-1.2,2.2-1.2,3.5c0,1.2,0.5,2.4,1.4,3.3c0.9,0.9,2.1,1.6,3.3,2.1
	c1.5,0.6,3.1,1.1,4.7,1.5c1.3,0.3,2.6,0.7,3.9,1.2c1.1,0.4,2.2,1,3.2,1.7c0.9,0.7,1.7,1.6,2.2,2.6c0.6,1.2,0.8,2.5,0.8,3.8
	c0,1.7-0.5,3.3-1.4,4.6c-1,1.3-2.4,2.4-4,3c-1.8,0.7-3.8,1.1-5.8,1.1c-2.2,0-4.4-0.5-6.4-1.3C180.1,45.4,178.2,43.9,176.7,42z
	 M207.8,47.1c-0.5,0-1-0.2-1.3-0.6c-0.3-0.4-0.5-0.9-0.4-1.4v-1.5c0-0.5,0.1-1,0.4-1.4c0.3-0.4,0.8-0.6,1.3-0.5h0.3
	c0.5,0,1,0.2,1.3,0.5c0.3,0.4,0.4,0.9,0.4,1.4v1.5c0,0.5-0.1,1-0.4,1.4c-0.3,0.4-0.8,0.6-1.3,0.6H207.8z"/>
</svg>
