<?xml version="1.0" encoding="utf-8"?>
<!-- Generator: Adobe Illustrator 24.1.3, SVG Export Plug-In . SVG Version: 6.00 Build 0)  -->
<svg version="1.1" xmlns="http://www.w3.org/2000/svg" xmlns:xlink="http://www.w3.org/1999/xlink" x="0px" y="0px"
	 viewBox="0 0 108 50" style="enable-background:new 0 0 108 50;" xml:space="preserve">
<path d="M31.9,2.3c0.4,0,0.7,0.1,0.9,0.4c0.2,0.2,0.4,0.6,0.4,0.9v27.6c0,2.9-0.7,5.8-2.2,8.3c-1.5,2.5-3.5,4.5-6,6
	c-2.5,1.5-5.3,2.3-8.3,2.2c-2.9,0-5.8-0.7-8.3-2.2c-2.5-1.5-4.5-3.5-6-6C1,37,0.2,34.1,0.2,31.2V3.6c0-0.3,0.1-0.7,0.4-0.9
	c0.3-0.3,0.6-0.4,1-0.4c0.4,0,0.7,0.1,1,0.4c0.2,0.2,0.4,0.6,0.4,0.9v27.6c0,2.5,0.6,4.9,1.9,7c1.2,2.1,2.9,3.8,5,5.1
	c2.1,1.3,4.5,1.9,6.9,1.9c2.5,0,4.9-0.6,7-1.9c2.1-1.2,3.8-3,5-5.1c1.3-2.1,1.9-4.5,1.9-7V3.6c0-0.3,0.1-0.7,0.4-0.9
	C31.2,2.4,31.5,2.3,31.9,2.3z M59.4,14.1c2.3-0.1,4.6,0.5,6.6,1.6c1.7,1,3,2.6,3.7,4.4c0.8,1.9,1.2,4,1.2,6.1v19.6
	c0,0.3-0.1,0.7-0.4,0.9c-0.2,0.2-0.6,0.4-0.9,0.4c-0.4,0-0.7-0.1-0.9-0.4c-0.2-0.2-0.4-0.6-0.4-0.9V26.5c0-1.7-0.3-3.4-0.9-5
	c-0.6-1.5-1.6-2.7-2.9-3.6c-1.6-1-3.4-1.4-5.3-1.3c-1.9,0-3.8,0.5-5.5,1.3c-1.7,0.8-3.3,2.1-4.5,3.6c-1.1,1.4-1.8,3.2-1.8,5v19.3
	c0,0.3-0.1,0.7-0.4,0.9c-0.2,0.2-0.6,0.4-0.9,0.4c-0.4,0-0.7-0.1-0.9-0.4c-0.2-0.2-0.4-0.6-0.4-0.9V16.4c0-0.3,0.1-0.7,0.4-0.9
	c0.2-0.2,0.6-0.4,0.9-0.4c0.4,0,0.7,0.1,0.9,0.4c0.2,0.2,0.4,0.6,0.4,0.9v6.3l-1.6,3.1c0-1.6,0.4-3.1,1.2-4.4
	c0.8-1.4,1.9-2.7,3.2-3.7c1.3-1.1,2.8-1.9,4.4-2.6C56.2,14.4,57.8,14.1,59.4,14.1z M84,45.8c0,0.3-0.1,0.7-0.4,0.9
	c-0.2,0.2-0.6,0.4-0.9,0.4c-0.4,0-0.7-0.1-0.9-0.4c-0.2-0.2-0.4-0.6-0.4-0.9V15.4c0-0.3,0.1-0.7,0.4-0.9c0.2-0.2,0.6-0.4,0.9-0.4
	c0.4,0,0.7,0.1,0.9,0.4c0.2,0.2,0.4,0.6,0.4,0.9V45.8z M82.8,9.8c-0.6,0-1.2-0.2-1.6-0.6c-0.4-0.4-0.6-0.9-0.6-1.5V7.2
	c0-0.6,0.2-1.1,0.6-1.5c0.5-0.4,1.1-0.6,1.7-0.6c0.6,0,1.1,0.2,1.5,0.6c0.4,0.4,0.6,0.9,0.6,1.5v0.5c0,0.6-0.2,1.1-0.6,1.5
	C83.9,9.6,83.3,9.8,82.8,9.8z M91.7,14.9h14.8c0.3,0,0.6,0.1,0.9,0.4c0.2,0.2,0.3,0.5,0.4,0.8c0,0.3-0.1,0.6-0.4,0.9
	c-0.2,0.2-0.5,0.4-0.9,0.4H91.7c-0.3,0-0.6-0.1-0.8-0.4c-0.2-0.2-0.4-0.5-0.4-0.8c0-0.3,0.1-0.6,0.4-0.9
	C91.1,15,91.4,14.9,91.7,14.9z M98.3,5.5c0.4,0,0.7,0.1,0.9,0.4c0.2,0.2,0.4,0.6,0.4,0.9v33.3c-0.1,1.1,0.1,2.1,0.5,3.1
	c0.3,0.6,0.8,1,1.4,1.3c0.5,0.2,1.1,0.3,1.6,0.3c0.3,0,0.5,0,0.8-0.1c0.2-0.1,0.5-0.1,0.8-0.1c0.3,0,0.6,0.1,0.8,0.4
	c0.2,0.2,0.3,0.5,0.3,0.8c0,0.4-0.3,0.8-0.7,1c-0.6,0.3-1.2,0.4-1.8,0.4c-0.3,0-0.7,0-1.4,0c-0.7,0-1.5-0.2-2.1-0.6
	c-0.8-0.4-1.5-1.1-1.9-2c-0.6-1.3-0.8-2.8-0.8-4.3V6.8c0-0.3,0.1-0.7,0.4-0.9C97.6,5.6,97.9,5.5,98.3,5.5z"/>
</svg>
