<svg xmlns="http://www.w3.org/2000/svg" width="300" height="100" viewBox="0 0 300 100">
  <g id="グループ_87" data-name="グループ 87" transform="translate(-3686 -121)">
    <rect id="長方形_61" data-name="長方形 61" width="300" height="100" transform="translate(3686 121)" fill="none"/>
    <path id="パス_20" data-name="パス 20" d="M-92.768-44.8a1.788,1.788,0,0,1,1.312.544,1.865,1.865,0,0,1,.544,1.376V-1.92a1.812,1.812,0,0,1-.576,1.376A1.974,1.974,0,0,1-92.9,0a2.058,2.058,0,0,1-1.472-.544,1.812,1.812,0,0,1-.576-1.376v-35.2l-15.04,22.784a1.664,1.664,0,0,1-1.472.768h-.128a1.831,1.831,0,0,1-1.408-.768l-15.04-22.912V-1.92a1.865,1.865,0,0,1-.544,1.376A1.865,1.865,0,0,1-129.952,0,1.76,1.76,0,0,1-131.3-.544a1.928,1.928,0,0,1-.512-1.376V-42.88a1.9,1.9,0,0,1,.544-1.344,1.812,1.812,0,0,1,1.376-.576,2.4,2.4,0,0,1,.96.224,1.718,1.718,0,0,1,.768.608l16.768,25.152,16.9-25.152A1.78,1.78,0,0,1-92.768-44.8Zm40.576,26.56a1.74,1.74,0,0,1-.576,1.312,1.9,1.9,0,0,1-1.344.544H-78.3A14.789,14.789,0,0,0-76.736-9.5a11.846,11.846,0,0,0,4.48,4.8,13.046,13.046,0,0,0,6.88,1.76,11.637,11.637,0,0,0,5.5-1.28,11.337,11.337,0,0,0,3.9-3.264,2.164,2.164,0,0,1,1.344-.576,1.592,1.592,0,0,1,1.152.512A1.592,1.592,0,0,1-52.96-6.4a1.9,1.9,0,0,1-.64,1.344,16.107,16.107,0,0,1-5.152,4.1,14.123,14.123,0,0,1-6.56,1.6,17.529,17.529,0,0,1-8.7-2.112A14.969,14.969,0,0,1-79.9-7.392a17.844,17.844,0,0,1-2.112-8.8,19.378,19.378,0,0,1,2.08-9.184A15,15,0,0,1-74.4-31.392a14.038,14.038,0,0,1,7.36-2.08,15.071,15.071,0,0,1,7.2,1.792,14.175,14.175,0,0,1,5.472,5.248A15.826,15.826,0,0,1-52.192-18.24ZM-67.04-29.76a10.724,10.724,0,0,0-6.88,2.56,11.862,11.862,0,0,0-4.064,7.36H-56.16v-.512a10.1,10.1,0,0,0-1.92-5.024,10.42,10.42,0,0,0-4-3.264A11.6,11.6,0,0,0-67.04-29.76Zm59.9-3.2q5.76,0,8.48,3.552t2.72,9.376V-1.92A1.865,1.865,0,0,1,3.52-.544,1.865,1.865,0,0,1,2.144,0,1.865,1.865,0,0,1,.768-.544,1.865,1.865,0,0,1,.224-1.92V-19.84a11.071,11.071,0,0,0-2.016-6.88q-2.016-2.656-6.24-2.656A10.657,10.657,0,0,0-13.12-28.1a10.524,10.524,0,0,0-3.872,3.488,8.431,8.431,0,0,0-1.472,4.768V-1.92a1.865,1.865,0,0,1-.544,1.376A1.865,1.865,0,0,1-20.384,0,1.865,1.865,0,0,1-21.76-.544,1.865,1.865,0,0,1-22.3-1.92V-20.032a11.061,11.061,0,0,0-1.92-6.752q-1.92-2.592-6.016-2.592A10.169,10.169,0,0,0-35.2-28.1a10.615,10.615,0,0,0-3.776,3.424,8.16,8.16,0,0,0-1.44,4.64V-1.92A1.865,1.865,0,0,1-40.96-.544,1.865,1.865,0,0,1-42.336,0a1.865,1.865,0,0,1-1.376-.544,1.865,1.865,0,0,1-.544-1.376V-30.592a1.865,1.865,0,0,1,.544-1.376,1.865,1.865,0,0,1,1.376-.544,1.865,1.865,0,0,1,1.376.544,1.865,1.865,0,0,1,.544,1.376v3.712a13.911,13.911,0,0,1,4.672-4.352,12.078,12.078,0,0,1,6.208-1.728,11.268,11.268,0,0,1,6.4,1.792A9.782,9.782,0,0,1-19.3-25.92a11.858,11.858,0,0,1,4.928-4.928A14.116,14.116,0,0,1-7.136-32.96Zm36.8-.512a14.121,14.121,0,0,1,7.68,2.176,14.9,14.9,0,0,1,5.408,6.048A19.134,19.134,0,0,1,44.7-16.512a19.389,19.389,0,0,1-1.952,8.736A15.347,15.347,0,0,1,37.376-1.6,13.669,13.669,0,0,1,29.728.64a13.092,13.092,0,0,1-6.752-1.824,14.721,14.721,0,0,1-5.024-4.832v4.224a1.974,1.974,0,0,1-.544,1.408,1.812,1.812,0,0,1-1.376.576,1.812,1.812,0,0,1-1.376-.576,1.974,1.974,0,0,1-.544-1.408V-45.376a1.865,1.865,0,0,1,.544-1.376,1.865,1.865,0,0,1,1.376-.544,1.865,1.865,0,0,1,1.376.544,1.865,1.865,0,0,1,.544,1.376V-26.5a13.479,13.479,0,0,1,4.864-5.056A12.869,12.869,0,0,1,29.664-33.472Zm-.32,30.528a10.455,10.455,0,0,0,5.984-1.792,12.159,12.159,0,0,0,4.16-4.9,15.569,15.569,0,0,0,1.5-6.88,15.309,15.309,0,0,0-1.5-6.88,11.781,11.781,0,0,0-4.16-4.768,10.733,10.733,0,0,0-5.984-1.728,11.154,11.154,0,0,0-6.08,1.7,11.218,11.218,0,0,0-4.16,4.768,15.8,15.8,0,0,0-1.472,6.912,15.717,15.717,0,0,0,1.5,6.944A11.924,11.924,0,0,0,23.3-4.7,10.7,10.7,0,0,0,29.344-2.944Zm50.944-15.3a1.74,1.74,0,0,1-.576,1.312,1.9,1.9,0,0,1-1.344.544H54.176A14.789,14.789,0,0,0,55.744-9.5a11.846,11.846,0,0,0,4.48,4.8,13.046,13.046,0,0,0,6.88,1.76,11.637,11.637,0,0,0,5.5-1.28,11.337,11.337,0,0,0,3.9-3.264,2.164,2.164,0,0,1,1.344-.576,1.592,1.592,0,0,1,1.152.512A1.592,1.592,0,0,1,79.52-6.4a1.9,1.9,0,0,1-.64,1.344,16.107,16.107,0,0,1-5.152,4.1,14.123,14.123,0,0,1-6.56,1.6,17.529,17.529,0,0,1-8.7-2.112,14.969,14.969,0,0,1-5.888-5.92,17.844,17.844,0,0,1-2.112-8.8,19.378,19.378,0,0,1,2.08-9.184,15,15,0,0,1,5.536-6.016,14.038,14.038,0,0,1,7.36-2.08,15.071,15.071,0,0,1,7.2,1.792,14.175,14.175,0,0,1,5.472,5.248A15.826,15.826,0,0,1,80.288-18.24ZM65.44-29.76a10.724,10.724,0,0,0-6.88,2.56A11.862,11.862,0,0,0,54.5-19.84H76.32v-.512a10.1,10.1,0,0,0-1.92-5.024,10.42,10.42,0,0,0-4-3.264A11.6,11.6,0,0,0,65.44-29.76Zm38.08-3.712a5.081,5.081,0,0,1,2.3.512,1.64,1.64,0,0,1,1.024,1.536,2.015,2.015,0,0,1-.512,1.44,1.615,1.615,0,0,1-1.216.544,4.893,4.893,0,0,1-1.248-.32,5.4,5.4,0,0,0-1.76-.32,7.62,7.62,0,0,0-4.7,1.824,14.205,14.205,0,0,0-3.84,4.7,12.464,12.464,0,0,0-1.5,5.824V-1.92A1.865,1.865,0,0,1,91.52-.544,1.865,1.865,0,0,1,90.144,0a1.865,1.865,0,0,1-1.376-.544,1.865,1.865,0,0,1-.544-1.376V-30.592a1.865,1.865,0,0,1,.544-1.376,1.865,1.865,0,0,1,1.376-.544,1.865,1.865,0,0,1,1.376.544,1.865,1.865,0,0,1,.544,1.376v5.632a14.688,14.688,0,0,1,4.448-6.048A11.12,11.12,0,0,1,103.52-33.472Zm7.488,28.288a2.847,2.847,0,0,1-.512-1.408,1.4,1.4,0,0,1,.832-1.28,1.384,1.384,0,0,1,1.024-.384,1.957,1.957,0,0,1,1.408.64,11.975,11.975,0,0,0,10.048,4.992,9.769,9.769,0,0,0,5.344-1.44,4.662,4.662,0,0,0,2.272-4.192,4.463,4.463,0,0,0-2.112-4.032,20.6,20.6,0,0,0-5.888-2.3,24.942,24.942,0,0,1-8.32-3.488,7.248,7.248,0,0,1-3.008-6.3,7.946,7.946,0,0,1,1.472-4.7,9.712,9.712,0,0,1,4-3.232,13.666,13.666,0,0,1,5.728-1.152,15.522,15.522,0,0,1,5.536,1.056,11.672,11.672,0,0,1,4.768,3.36,1.526,1.526,0,0,1,.576,1.28,1.759,1.759,0,0,1-.64,1.344,1.708,1.708,0,0,1-1.152.384,1.592,1.592,0,0,1-1.152-.512,10.106,10.106,0,0,0-3.648-2.624,11.513,11.513,0,0,0-4.544-.9,9.175,9.175,0,0,0-5.152,1.408,4.717,4.717,0,0,0-2.144,4.224,4.6,4.6,0,0,0,2.336,3.9,24.505,24.505,0,0,0,6.5,2.432,30.5,30.5,0,0,1,5.5,1.856,9.234,9.234,0,0,1,3.552,2.88,8.082,8.082,0,0,1,1.376,4.928,7.823,7.823,0,0,1-3.328,6.624A13.492,13.492,0,0,1,123.424.64,15.006,15.006,0,0,1,111.008-5.184Z" transform="translate(3835 195)" fill="#fff"/>
  </g>
</svg>
