<?xml version="1.0" encoding="utf-8"?>
<!-- Generator: Adobe Illustrator 24.1.1, SVG Export Plug-In . SVG Version: 6.00 Build 0)  -->
<svg version="1.1" id="レイヤー_1" xmlns="http://www.w3.org/2000/svg" xmlns:xlink="http://www.w3.org/1999/xlink" x="0px"
	 y="0px" viewBox="0 0 120 120" enable-background="new 0 0 120 120" xml:space="preserve">
<path id="パス_5" fill="#FFFFFF" d="M12.37,112.02c0.01,0.43-0.17,0.84-0.48,1.13c-0.3,0.3-0.71,0.47-1.14,0.47
	c-0.44,0.02-0.87-0.15-1.17-0.47c-0.29-0.3-0.45-0.71-0.44-1.13V87.97c-0.01-0.42,0.16-0.83,0.46-1.13
	c0.32-0.32,0.75-0.48,1.19-0.47c0.42-0.01,0.82,0.16,1.11,0.47c0.3,0.3,0.47,0.71,0.46,1.13L12.37,112.02z"/>
<path id="パス_6" fill="#FFFFFF" d="M29.05,86.37c1.72-0.04,3.43,0.33,4.98,1.07c1.4,0.7,2.62,1.72,3.56,2.98
	c0.97,1.32,1.69,2.8,2.13,4.38c0.48,1.69,0.72,3.44,0.71,5.2c0.03,2.35-0.4,4.68-1.27,6.87c-0.77,1.97-2.08,3.67-3.79,4.92
	c-1.86,1.27-4.07,1.91-6.32,1.83h-9.57c-0.42,0.01-0.82-0.16-1.11-0.47c-0.3-0.3-0.47-0.71-0.46-1.13V87.97
	c-0.01-0.42,0.16-0.83,0.46-1.13c0.29-0.3,0.69-0.47,1.11-0.47H29.05z M28.67,110.58c1.73,0.08,3.44-0.43,4.85-1.44
	c1.26-1,2.2-2.33,2.71-3.85c0.59-1.7,0.88-3.49,0.86-5.29c0.01-1.35-0.16-2.7-0.48-4.01c-0.29-1.21-0.8-2.36-1.5-3.39
	c-0.67-0.98-1.57-1.78-2.61-2.34c-1.18-0.6-2.5-0.89-3.83-0.85h-7.84l0.31-0.35v21.91l-0.23-0.39L28.67,110.58z"/>
<path id="パス_7" fill="#FFFFFF" d="M65.53,110.54c0.42-0.01,0.82,0.15,1.12,0.45c0.3,0.29,0.47,0.69,0.46,1.11
	c0.01,0.41-0.16,0.81-0.46,1.09c-0.3,0.28-0.7,0.44-1.12,0.43h-13.3c-0.43,0.01-0.84-0.16-1.13-0.47c-0.29-0.3-0.45-0.71-0.44-1.13
	V87.97c-0.01-0.42,0.16-0.83,0.46-1.13c0.32-0.31,0.75-0.48,1.19-0.47c0.42-0.01,0.82,0.16,1.11,0.47c0.3,0.3,0.47,0.71,0.46,1.13
	v23.27l-0.77-0.7H65.53z"/>
<path id="パス_8" fill="#FFFFFF" d="M86.37,93.3c0.42-0.02,0.82,0.15,1.12,0.45c0.28,0.3,0.43,0.7,0.42,1.11v17.16
	c0.01,0.42-0.15,0.83-0.44,1.13c-0.59,0.61-1.57,0.62-2.18,0.03c-0.01-0.01-0.02-0.02-0.03-0.03c-0.28-0.31-0.43-0.71-0.42-1.13
	v-3.7l0.73-0.08c-0.02,0.67-0.22,1.32-0.58,1.89c-0.42,0.7-0.95,1.34-1.58,1.87c-0.7,0.61-1.5,1.09-2.36,1.44
	c-0.92,0.38-1.91,0.57-2.9,0.56c-1.68,0.03-3.33-0.46-4.73-1.38c-1.4-0.94-2.54-2.24-3.29-3.76c-1.61-3.43-1.61-7.41,0-10.84
	c0.75-1.5,1.88-2.78,3.29-3.7c1.37-0.89,2.98-1.36,4.61-1.34c1.05-0.01,2.09,0.18,3.08,0.54c0.91,0.34,1.75,0.84,2.48,1.48
	c0.67,0.58,1.23,1.28,1.65,2.06c0.38,0.69,0.59,1.47,0.6,2.26l-1-0.23v-4.23c-0.01-0.41,0.14-0.81,0.42-1.11
	C85.55,93.45,85.96,93.28,86.37,93.3z M78.45,111.12c1.21,0.02,2.4-0.33,3.4-1.01c1-0.69,1.8-1.64,2.31-2.74
	c0.57-1.22,0.85-2.56,0.83-3.91c0.02-1.33-0.26-2.65-0.83-3.85c-0.51-1.1-1.31-2.04-2.31-2.72c-2.05-1.34-4.71-1.35-6.77-0.02
	c-1,0.68-1.8,1.61-2.33,2.7c-0.58,1.21-0.87,2.55-0.85,3.89c-0.02,1.35,0.27,2.69,0.85,3.91c0.52,1.1,1.32,2.05,2.33,2.74
	C76.08,110.78,77.25,111.14,78.45,111.12L78.45,111.12z"/>
<path id="パス_9" fill="#FFFFFF" d="M101.67,92.98c1.66-0.02,3.29,0.44,4.69,1.34c1.4,0.91,2.53,2.18,3.29,3.68
	c0.84,1.68,1.25,3.54,1.21,5.41c0.04,1.89-0.38,3.76-1.21,5.45c-0.75,1.51-1.87,2.81-3.27,3.76c-1.37,0.92-2.98,1.4-4.63,1.38
	c-0.91,0.01-1.81-0.15-2.67-0.45c-0.81-0.29-1.58-0.69-2.27-1.21c-0.64-0.47-1.22-1.03-1.71-1.65c-0.43-0.55-0.77-1.17-1-1.83
	l0.85-0.51v3.85c0.01,0.42-0.14,0.82-0.42,1.13c-0.29,0.31-0.69,0.48-1.11,0.47c-0.41,0.01-0.81-0.15-1.1-0.45
	c-0.3-0.31-0.46-0.72-0.44-1.15v-25.8c-0.01-0.42,0.15-0.83,0.44-1.13c0.59-0.61,1.57-0.62,2.18-0.03c0.01,0.01,0.02,0.02,0.03,0.03
	c0.28,0.31,0.43,0.71,0.42,1.13V98.4l-0.58-0.31c0.2-0.68,0.52-1.32,0.94-1.89c0.46-0.63,1.02-1.18,1.65-1.63
	c0.67-0.49,1.41-0.87,2.19-1.15C99.96,93.13,100.81,92.98,101.67,92.98z M101.33,95.86c-1.21-0.02-2.39,0.32-3.4,0.99
	c-1,0.67-1.79,1.6-2.31,2.68c-0.57,1.21-0.85,2.53-0.83,3.87c-0.02,1.36,0.26,2.7,0.83,3.93c0.5,1.11,1.3,2.07,2.31,2.76
	c1,0.68,2.19,1.03,3.4,1.01c1.21,0.02,2.39-0.33,3.38-1.01c1-0.7,1.79-1.65,2.3-2.76c0.58-1.23,0.87-2.57,0.84-3.93
	c0.02-1.34-0.26-2.67-0.84-3.87c-0.52-1.08-1.32-2.01-2.31-2.68C103.71,96.19,102.53,95.84,101.33,95.86L101.33,95.86z"/>
<path fill="none" d="M39.93,6H78.3c7.83,0,14.17,6.35,14.17,14.17v37.85c0,7.83-6.35,14.17-14.17,14.17H39.93
	c-7.83,0-14.17-6.35-14.17-14.17V20.17C25.76,12.34,32.1,6,39.93,6z"/>
<path fill="none" stroke="#FFFFFF" stroke-width="4" stroke-linecap="round" stroke-miterlimit="10" stroke-dasharray="38,35" d="
	M39.93,8H78.3c6.72,0,12.17,5.45,12.17,12.17v37.85c0,6.72-5.45,12.17-12.17,12.17H39.93c-6.72,0-12.17-5.45-12.17-12.17V20.17
	C27.76,13.45,33.21,8,39.93,8z"/>
</svg>
