<svg xmlns="http://www.w3.org/2000/svg" width="220" height="264" viewBox="0 0 220 264">
  <g id="グループ_90" data-name="グループ 90" transform="translate(-3277 -4610)">
    <rect id="長方形_62" data-name="長方形 62" width="220" height="264" transform="translate(3277 4610)" fill="none"/>
    <g id="グループ_89" data-name="グループ 89" transform="translate(3199 102)">
      <rect id="長方形_54" data-name="長方形 54" width="220" height="263" transform="translate(78 4508)" fill="#fff"/>
      <path id="パス_22" data-name="パス 22" d="M-23.425-35a1.337,1.337,0,0,1,1.025.4,1.405,1.405,0,0,1,.375,1v32a1.538,1.538,0,0,1-.45,1.175,1.542,1.542,0,0,1-1.1.425,1.593,1.593,0,0,1-.675-.15,1.8,1.8,0,0,1-.525-.35l-21.45-28.9V-1.35a1.261,1.261,0,0,1-.425.95,1.382,1.382,0,0,1-.975.4,1.357,1.357,0,0,1-1-.4,1.3,1.3,0,0,1-.4-.95V-33.5a1.438,1.438,0,0,1,.425-1.1,1.442,1.442,0,0,1,1.025-.4,1.387,1.387,0,0,1,1.2.55L-24.825-5.4V-33.6a1.357,1.357,0,0,1,.4-1A1.357,1.357,0,0,1-23.425-35ZM8.225-14.25a1.359,1.359,0,0,1-.45,1.025,1.481,1.481,0,0,1-1.05.425h-18.9A11.554,11.554,0,0,0-10.95-7.425a9.255,9.255,0,0,0,3.5,3.75A10.192,10.192,0,0,0-2.075-2.3a9.091,9.091,0,0,0,4.3-1,8.857,8.857,0,0,0,3.05-2.55,1.691,1.691,0,0,1,1.05-.45,1.244,1.244,0,0,1,.9.4,1.244,1.244,0,0,1,.4.9,1.482,1.482,0,0,1-.5,1.05A12.584,12.584,0,0,1,3.1-.75,11.034,11.034,0,0,1-2.025.5a13.694,13.694,0,0,1-6.8-1.65,11.694,11.694,0,0,1-4.6-4.625,13.941,13.941,0,0,1-1.65-6.875,15.139,15.139,0,0,1,1.625-7.175,11.719,11.719,0,0,1,4.325-4.7,10.967,10.967,0,0,1,5.75-1.625,11.775,11.775,0,0,1,5.625,1.4,11.074,11.074,0,0,1,4.275,4.1A12.364,12.364,0,0,1,8.225-14.25Zm-11.6-9a8.378,8.378,0,0,0-5.375,2,9.267,9.267,0,0,0-3.175,5.75H5.125v-.4a7.887,7.887,0,0,0-1.5-3.925A8.141,8.141,0,0,0,.5-22.375,9.065,9.065,0,0,0-3.375-23.25Zm35.6,21a1.331,1.331,0,0,1,.35.9,1.523,1.523,0,0,1-.45,1.075A1.4,1.4,0,0,1,31.075.2a1.579,1.579,0,0,1-1.25-.7l-7.65-9.9L14.525-.45a1.425,1.425,0,0,1-1.2.6,1.524,1.524,0,0,1-1-.375,1.209,1.209,0,0,1-.45-.975,1.4,1.4,0,0,1,.35-.95l8.2-10.5L12.075-23.4a1.463,1.463,0,0,1-.3-.9,1.4,1.4,0,0,1,.475-1.05,1.523,1.523,0,0,1,1.075-.45,1.392,1.392,0,0,1,1.2.65l7.8,10.05,7.5-10.05a1.52,1.52,0,0,1,1.25-.65,1.385,1.385,0,0,1,1.025.375,1.257,1.257,0,0,1,.375.925,1.4,1.4,0,0,1-.35.95l-8.1,10.65Zm13.5-20.4V-5.9a3.58,3.58,0,0,0,.7,2.575,2.553,2.553,0,0,0,1.85.675,2.907,2.907,0,0,0,.75-.125,2.82,2.82,0,0,1,.7-.125.994.994,0,0,1,.775.375,1.3,1.3,0,0,1,.325.875,1.371,1.371,0,0,1-.8,1.175,3.654,3.654,0,0,1-1.9.475,10.409,10.409,0,0,1-2.4-.25A3.81,3.81,0,0,1,43.7-1.75a6.533,6.533,0,0,1-.975-4v-16.9h-3.65a1.442,1.442,0,0,1-1.025-.4,1.316,1.316,0,0,1-.425-1,1.316,1.316,0,0,1,.425-1,1.442,1.442,0,0,1,1.025-.4h3.65V-31a1.457,1.457,0,0,1,.425-1.075,1.457,1.457,0,0,1,1.075-.425,1.457,1.457,0,0,1,1.075.425A1.457,1.457,0,0,1,45.725-31v5.55h5A1.307,1.307,0,0,1,51.7-25a1.424,1.424,0,0,1,.425,1,1.275,1.275,0,0,1-.4.975,1.405,1.405,0,0,1-1,.375ZM-62.05,25a9.69,9.69,0,0,1,4.95,1.275,8.89,8.89,0,0,1,3.425,3.55A10.636,10.636,0,0,1-52.45,34.95a11.078,11.078,0,0,1-1.225,5.2,9.286,9.286,0,0,1-3.425,3.7,9.274,9.274,0,0,1-4.95,1.35H-72.4V58.5a1.457,1.457,0,0,1-.425,1.075A1.457,1.457,0,0,1-73.9,60a1.457,1.457,0,0,1-1.075-.425A1.457,1.457,0,0,1-75.4,58.5v-32a1.457,1.457,0,0,1,.425-1.075A1.457,1.457,0,0,1-73.9,25Zm0,17.3a5.9,5.9,0,0,0,4.7-2.1,7.783,7.783,0,0,0,1.8-5.25,7.151,7.151,0,0,0-1.8-5.05,6.1,6.1,0,0,0-4.7-1.95H-72.4V42.3Zm27.65-8.45a3.969,3.969,0,0,1,1.8.4,1.281,1.281,0,0,1,.8,1.2,1.575,1.575,0,0,1-.4,1.125,1.261,1.261,0,0,1-.95.425,3.822,3.822,0,0,1-.975-.25A4.221,4.221,0,0,0-35.5,36.5a5.953,5.953,0,0,0-3.675,1.425,11.1,11.1,0,0,0-3,3.675,9.737,9.737,0,0,0-1.175,4.55V58.5a1.457,1.457,0,0,1-.425,1.075A1.457,1.457,0,0,1-44.85,60a1.457,1.457,0,0,1-1.075-.425A1.457,1.457,0,0,1-46.35,58.5V36.1a1.457,1.457,0,0,1,.425-1.075A1.457,1.457,0,0,1-44.85,34.6a1.457,1.457,0,0,1,1.075.425A1.457,1.457,0,0,1-43.35,36.1v4.4a11.475,11.475,0,0,1,3.475-4.725A8.688,8.688,0,0,1-34.4,33.85ZM-4.6,47.2A14.058,14.058,0,0,1-6.25,54a12.185,12.185,0,0,1-4.55,4.775A12.378,12.378,0,0,1-17.25,60.5a12.378,12.378,0,0,1-6.45-1.725A12.185,12.185,0,0,1-28.25,54a14.058,14.058,0,0,1-1.65-6.8,14.058,14.058,0,0,1,1.65-6.8,12.365,12.365,0,0,1,4.55-4.8,12.243,12.243,0,0,1,6.45-1.75A12.243,12.243,0,0,1-10.8,35.6a12.365,12.365,0,0,1,4.55,4.8A14.058,14.058,0,0,1-4.6,47.2Zm-3,0a11.513,11.513,0,0,0-1.25-5.4,9.5,9.5,0,0,0-3.475-3.775A9.184,9.184,0,0,0-17.25,36.65a9.058,9.058,0,0,0-4.9,1.375A9.745,9.745,0,0,0-25.625,41.8,11.329,11.329,0,0,0-26.9,47.2a11.223,11.223,0,0,0,1.275,5.35,9.745,9.745,0,0,0,3.475,3.775,9.058,9.058,0,0,0,4.9,1.375,9.311,9.311,0,0,0,4.925-1.35A9.324,9.324,0,0,0-8.85,52.6,11.513,11.513,0,0,0-7.6,47.2ZM-2,69.9a1.357,1.357,0,0,1-1-.4,1.357,1.357,0,0,1-.4-1v-.2a1.3,1.3,0,0,1,.35-.925A1.618,1.618,0,0,1-2.1,66.9,5.587,5.587,0,0,0,.975,65.275,4.736,4.736,0,0,0,2.2,61.85V36.05a1.454,1.454,0,0,1,1.5-1.5,1.454,1.454,0,0,1,1.5,1.5V62.3a7.452,7.452,0,0,1-1.075,4.025,7.471,7.471,0,0,1-2.75,2.65A6.919,6.919,0,0,1-2,69.9ZM3.7,30.6a2.3,2.3,0,0,1-1.55-.475A1.718,1.718,0,0,1,1.6,28.75v-.5a1.681,1.681,0,0,1,.575-1.375A2.4,2.4,0,0,1,3.75,26.4q2,0,2,1.85v.5a1.759,1.759,0,0,1-.525,1.375A2.2,2.2,0,0,1,3.7,30.6ZM35.2,45.75a1.359,1.359,0,0,1-.45,1.025,1.481,1.481,0,0,1-1.05.425H14.8a11.554,11.554,0,0,0,1.225,5.375,9.255,9.255,0,0,0,3.5,3.75A10.192,10.192,0,0,0,24.9,57.7a9.091,9.091,0,0,0,4.3-1,8.857,8.857,0,0,0,3.05-2.55,1.691,1.691,0,0,1,1.05-.45A1.372,1.372,0,0,1,34.6,55a1.482,1.482,0,0,1-.5,1.05,12.584,12.584,0,0,1-4.025,3.2A11.034,11.034,0,0,1,24.95,60.5a13.694,13.694,0,0,1-6.8-1.65,11.694,11.694,0,0,1-4.6-4.625A13.941,13.941,0,0,1,11.9,47.35a15.139,15.139,0,0,1,1.625-7.175,11.719,11.719,0,0,1,4.325-4.7A10.967,10.967,0,0,1,23.6,33.85a11.775,11.775,0,0,1,5.625,1.4,11.074,11.074,0,0,1,4.275,4.1A12.364,12.364,0,0,1,35.2,45.75Zm-11.6-9a8.378,8.378,0,0,0-5.375,2A9.267,9.267,0,0,0,15.05,44.5H32.1v-.4a7.887,7.887,0,0,0-1.5-3.925,8.141,8.141,0,0,0-3.125-2.55A9.065,9.065,0,0,0,23.6,36.75Zm28.85-2.9a17.391,17.391,0,0,1,4.375.525,9.494,9.494,0,0,1,3.25,1.425A2.486,2.486,0,0,1,61.3,37.75a1.524,1.524,0,0,1-.375,1A1.159,1.159,0,0,1,60,39.2a1.551,1.551,0,0,1-.825-.2,4.14,4.14,0,0,1-.725-.6,4.961,4.961,0,0,0-1.25-.95,8.313,8.313,0,0,0-1.975-.575A14.532,14.532,0,0,0,52.6,36.65a9.4,9.4,0,0,0-5.025,1.4A9.928,9.928,0,0,0,44,41.85a10.947,10.947,0,0,0-1.3,5.3,11.513,11.513,0,0,0,1.25,5.4A9.363,9.363,0,0,0,52.5,57.7a11.071,11.071,0,0,0,2.875-.3,10.877,10.877,0,0,0,2.125-.85,10.652,10.652,0,0,0,1.2-.9,4.742,4.742,0,0,1,.7-.525,1.268,1.268,0,0,1,.65-.175,1.237,1.237,0,0,1,.95.375,1.372,1.372,0,0,1,.35.975,2.6,2.6,0,0,1-1.2,1.825,10.489,10.489,0,0,1-3.3,1.675,14.639,14.639,0,0,1-4.65.7,12.3,12.3,0,0,1-6.5-1.725A11.772,11.772,0,0,1,41.275,54,14.707,14.707,0,0,1,39.7,47.15a14.053,14.053,0,0,1,1.6-6.675A12.289,12.289,0,0,1,52.45,33.85Zm19.65,3.5V54.1a3.58,3.58,0,0,0,.7,2.575,2.553,2.553,0,0,0,1.85.675,2.907,2.907,0,0,0,.75-.125,2.82,2.82,0,0,1,.7-.125.994.994,0,0,1,.775.375,1.3,1.3,0,0,1,.325.875,1.371,1.371,0,0,1-.8,1.175A3.654,3.654,0,0,1,74.5,60a10.409,10.409,0,0,1-2.4-.25,3.81,3.81,0,0,1-2.025-1.5,6.533,6.533,0,0,1-.975-4V37.35H65.45a1.442,1.442,0,0,1-1.025-.4,1.389,1.389,0,0,1,0-2,1.442,1.442,0,0,1,1.025-.4H69.1V29a1.5,1.5,0,1,1,3,0v5.55h5a1.307,1.307,0,0,1,.975.45,1.424,1.424,0,0,1,.425,1,1.275,1.275,0,0,1-.4.975,1.405,1.405,0,0,1-1,.375Z" transform="translate(187.5 4598)"/>
      <path id="パス_23" data-name="パス 23" d="M-53.43-10.46a6.957,6.957,0,0,1,1.75.21,3.8,3.8,0,0,1,1.3.57.994.994,0,0,1,.49.78.61.61,0,0,1-.15.4.464.464,0,0,1-.37.18.62.62,0,0,1-.33-.08,1.656,1.656,0,0,1-.29-.24,1.985,1.985,0,0,0-.5-.38,3.325,3.325,0,0,0-.79-.23,5.812,5.812,0,0,0-1.05-.09,3.76,3.76,0,0,0-2.01.56,3.971,3.971,0,0,0-1.43,1.52,4.379,4.379,0,0,0-.52,2.12,4.605,4.605,0,0,0,.5,2.16,3.8,3.8,0,0,0,1.39,1.51,3.782,3.782,0,0,0,2.03.55,4.428,4.428,0,0,0,1.15-.12,4.351,4.351,0,0,0,.85-.34,4.26,4.26,0,0,0,.48-.36,1.9,1.9,0,0,1,.28-.21.507.507,0,0,1,.26-.07.5.5,0,0,1,.38.15.549.549,0,0,1,.14.39,1.04,1.04,0,0,1-.48.73,4.2,4.2,0,0,1-1.32.67A5.856,5.856,0,0,1-53.53.2a4.921,4.921,0,0,1-2.6-.69A4.709,4.709,0,0,1-57.9-2.4a5.883,5.883,0,0,1-.63-2.74,5.621,5.621,0,0,1,.64-2.67,4.963,4.963,0,0,1,1.8-1.93A4.939,4.939,0,0,1-53.43-10.46Zm15.3,5.34a5.623,5.623,0,0,1-.66,2.72A4.874,4.874,0,0,1-40.61-.49,4.951,4.951,0,0,1-43.19.2a4.951,4.951,0,0,1-2.58-.69A4.874,4.874,0,0,1-47.59-2.4a5.623,5.623,0,0,1-.66-2.72,5.623,5.623,0,0,1,.66-2.72,4.946,4.946,0,0,1,1.82-1.92,4.9,4.9,0,0,1,2.58-.7,4.9,4.9,0,0,1,2.58.7,4.946,4.946,0,0,1,1.82,1.92A5.623,5.623,0,0,1-38.13-5.12Zm-1.2,0a4.605,4.605,0,0,0-.5-2.16,3.8,3.8,0,0,0-1.39-1.51,3.674,3.674,0,0,0-1.97-.55,3.623,3.623,0,0,0-1.96.55,3.9,3.9,0,0,0-1.39,1.51,4.532,4.532,0,0,0-.51,2.16,4.489,4.489,0,0,0,.51,2.14,3.9,3.9,0,0,0,1.39,1.51,3.623,3.623,0,0,0,1.96.55,3.725,3.725,0,0,0,1.97-.54,3.73,3.73,0,0,0,1.39-1.5A4.605,4.605,0,0,0-39.33-5.12Zm15.26-5.18a3.125,3.125,0,0,1,2.65,1.11,4.692,4.692,0,0,1,.85,2.93V-.6a.583.583,0,0,1-.17.43.583.583,0,0,1-.43.17.583.583,0,0,1-.43-.17.583.583,0,0,1-.17-.43V-6.2a3.46,3.46,0,0,0-.63-2.15,2.291,2.291,0,0,0-1.95-.83,3.33,3.33,0,0,0-1.59.4,3.289,3.289,0,0,0-1.21,1.09,2.635,2.635,0,0,0-.46,1.49V-.6a.583.583,0,0,1-.17.43.583.583,0,0,1-.43.17.583.583,0,0,1-.43-.17.583.583,0,0,1-.17-.43V-6.26a3.457,3.457,0,0,0-.6-2.11,2.185,2.185,0,0,0-1.88-.81,3.178,3.178,0,0,0-1.55.4,3.317,3.317,0,0,0-1.18,1.07,2.55,2.55,0,0,0-.45,1.45V-.6a.583.583,0,0,1-.17.43.583.583,0,0,1-.43.17.583.583,0,0,1-.43-.17.583.583,0,0,1-.17-.43V-9.56a.583.583,0,0,1,.17-.43.583.583,0,0,1,.43-.17.583.583,0,0,1,.43.17.583.583,0,0,1,.17.43V-8.4a4.347,4.347,0,0,1,1.46-1.36,3.774,3.774,0,0,1,1.94-.54,3.521,3.521,0,0,1,2,.56,3.057,3.057,0,0,1,1.2,1.64,3.706,3.706,0,0,1,1.54-1.54A4.411,4.411,0,0,1-24.07-10.3Zm7.8,9.7a.583.583,0,0,1-.17.43.583.583,0,0,1-.43.17.583.583,0,0,1-.43-.17.583.583,0,0,1-.17-.43V-9.8a.583.583,0,0,1,.17-.43.583.583,0,0,1,.43-.17.583.583,0,0,1,.43.17.583.583,0,0,1,.17.43Zm-.6-11.14a.919.919,0,0,1-.62-.19.687.687,0,0,1-.22-.55v-.2a.673.673,0,0,1,.23-.55.96.96,0,0,1,.63-.19q.8,0,.8.74v.2a.7.7,0,0,1-.21.55A.88.88,0,0,1-16.87-11.74Zm8.54,1.28A3.283,3.283,0,0,1-5.6-9.37a4.5,4.5,0,0,1,.87,2.89V-.6a.566.566,0,0,1-.18.43A.592.592,0,0,1-5.33,0a.583.583,0,0,1-.43-.17A.583.583,0,0,1-5.93-.6V-6.42a3.268,3.268,0,0,0-.65-2.11,2.423,2.423,0,0,0-2.01-.81,3.487,3.487,0,0,0-1.63.4,3.487,3.487,0,0,0-1.25,1.07,2.44,2.44,0,0,0-.48,1.45V-.6a.583.583,0,0,1-.17.43.583.583,0,0,1-.43.17.583.583,0,0,1-.43-.17.583.583,0,0,1-.17-.43V-9.56a.583.583,0,0,1,.17-.43.583.583,0,0,1,.43-.17.583.583,0,0,1,.43.17.583.583,0,0,1,.17.43v1.1A4.243,4.243,0,0,1-10.4-9.89,4.163,4.163,0,0,1-8.33-10.46Zm15.38.24a.583.583,0,0,1,.43.17.608.608,0,0,1,.17.45V-.94A5.2,5.2,0,0,1,7,1.73,4.3,4.3,0,0,1,5.22,3.42,5.592,5.592,0,0,1,2.63,4a6.46,6.46,0,0,1-1.47-.18A5.854,5.854,0,0,1-.16,3.36q-.55-.28-.63-.58a.44.44,0,0,1-.14-.32.368.368,0,0,1,.18-.32.324.324,0,0,1,.2-.06,1.551,1.551,0,0,1,.46.14l.42.18a6.449,6.449,0,0,0,2.32.48A3.77,3.77,0,0,0,5.44,1.87,3.689,3.689,0,0,0,6.45-.86V-2.1A3.687,3.687,0,0,1,4.87-.41,4.531,4.531,0,0,1,2.61.2,4.62,4.62,0,0,1,.12-.49,4.849,4.849,0,0,1-1.63-2.4a5.808,5.808,0,0,1-.64-2.74,5.765,5.765,0,0,1,.64-2.72A4.849,4.849,0,0,1,.12-9.77a4.585,4.585,0,0,1,2.47-.69,4.406,4.406,0,0,1,2.31.63A4.22,4.22,0,0,1,6.45-8.32V-9.6a.617.617,0,0,1,.17-.44A.566.566,0,0,1,7.05-10.22ZM2.71-.92a3.711,3.711,0,0,0,1.97-.53,3.623,3.623,0,0,0,1.36-1.5,4.789,4.789,0,0,0,.49-2.19,4.727,4.727,0,0,0-.49-2.18A3.637,3.637,0,0,0,4.68-8.81a3.711,3.711,0,0,0-1.97-.53,3.573,3.573,0,0,0-1.95.55A3.778,3.778,0,0,0-.6-7.28a4.638,4.638,0,0,0-.49,2.14A4.682,4.682,0,0,0-.6-2.98,3.778,3.778,0,0,0,.76-1.47,3.573,3.573,0,0,0,2.71-.92Zm12.98-.7a.89.89,0,0,1-.16-.44.436.436,0,0,1,.26-.4.432.432,0,0,1,.32-.12.612.612,0,0,1,.44.2A3.742,3.742,0,0,0,19.69-.82a3.053,3.053,0,0,0,1.67-.45,1.457,1.457,0,0,0,.71-1.31,1.4,1.4,0,0,0-.66-1.26,6.438,6.438,0,0,0-1.84-.72,7.794,7.794,0,0,1-2.6-1.09,2.265,2.265,0,0,1-.94-1.97,2.483,2.483,0,0,1,.46-1.47,3.035,3.035,0,0,1,1.25-1.01,4.271,4.271,0,0,1,1.79-.36,4.851,4.851,0,0,1,1.73.33,3.647,3.647,0,0,1,1.49,1.05.477.477,0,0,1,.18.4.55.55,0,0,1-.2.42.534.534,0,0,1-.36.12.5.5,0,0,1-.36-.16,3.158,3.158,0,0,0-1.14-.82,3.6,3.6,0,0,0-1.42-.28,2.867,2.867,0,0,0-1.61.44,1.474,1.474,0,0,0-.67,1.32,1.436,1.436,0,0,0,.73,1.22,7.658,7.658,0,0,0,2.03.76,9.531,9.531,0,0,1,1.72.58,2.886,2.886,0,0,1,1.11.9,2.526,2.526,0,0,1,.43,1.54A2.445,2.445,0,0,1,22.15-.57,4.216,4.216,0,0,1,19.57.2,4.689,4.689,0,0,1,15.69-1.62Zm19.4-3.5a5.623,5.623,0,0,1-.66,2.72A4.874,4.874,0,0,1,32.61-.49,4.951,4.951,0,0,1,30.03.2a4.951,4.951,0,0,1-2.58-.69A4.874,4.874,0,0,1,25.63-2.4a5.623,5.623,0,0,1-.66-2.72,5.623,5.623,0,0,1,.66-2.72,4.946,4.946,0,0,1,1.82-1.92,4.9,4.9,0,0,1,2.58-.7,4.9,4.9,0,0,1,2.58.7,4.946,4.946,0,0,1,1.82,1.92A5.623,5.623,0,0,1,35.09-5.12Zm-1.2,0a4.605,4.605,0,0,0-.5-2.16A3.8,3.8,0,0,0,32-8.79a3.674,3.674,0,0,0-1.97-.55,3.623,3.623,0,0,0-1.96.55,3.9,3.9,0,0,0-1.39,1.51,4.532,4.532,0,0,0-.51,2.16,4.489,4.489,0,0,0,.51,2.14,3.9,3.9,0,0,0,1.39,1.51,3.623,3.623,0,0,0,1.96.55A3.725,3.725,0,0,0,32-1.46a3.73,3.73,0,0,0,1.39-1.5A4.605,4.605,0,0,0,33.89-5.12Zm13.1,0a5.623,5.623,0,0,1-.66,2.72A4.874,4.874,0,0,1,44.51-.49,4.951,4.951,0,0,1,41.93.2a4.951,4.951,0,0,1-2.58-.69A4.874,4.874,0,0,1,37.53-2.4a5.623,5.623,0,0,1-.66-2.72,5.623,5.623,0,0,1,.66-2.72,4.946,4.946,0,0,1,1.82-1.92,4.9,4.9,0,0,1,2.58-.7,4.9,4.9,0,0,1,2.58.7,4.946,4.946,0,0,1,1.82,1.92A5.623,5.623,0,0,1,46.99-5.12Zm-1.2,0a4.605,4.605,0,0,0-.5-2.16A3.8,3.8,0,0,0,43.9-8.79a3.674,3.674,0,0,0-1.97-.55,3.623,3.623,0,0,0-1.96.55,3.9,3.9,0,0,0-1.39,1.51,4.532,4.532,0,0,0-.51,2.16,4.489,4.489,0,0,0,.51,2.14,3.9,3.9,0,0,0,1.39,1.51,3.623,3.623,0,0,0,1.96.55,3.725,3.725,0,0,0,1.97-.54,3.73,3.73,0,0,0,1.39-1.5A4.605,4.605,0,0,0,45.79-5.12Zm8.48-5.34A3.283,3.283,0,0,1,57-9.37a4.5,4.5,0,0,1,.87,2.89V-.6a.566.566,0,0,1-.18.43.592.592,0,0,1-.42.17.583.583,0,0,1-.43-.17.583.583,0,0,1-.17-.43V-6.42a3.268,3.268,0,0,0-.65-2.11,2.423,2.423,0,0,0-2.01-.81,3.487,3.487,0,0,0-1.63.4,3.487,3.487,0,0,0-1.25,1.07,2.44,2.44,0,0,0-.48,1.45V-.6a.583.583,0,0,1-.17.43.583.583,0,0,1-.43.17.583.583,0,0,1-.43-.17.583.583,0,0,1-.17-.43V-9.56a.583.583,0,0,1,.17-.43.583.583,0,0,1,.43-.17.583.583,0,0,1,.43.17.583.583,0,0,1,.17.43v1.1A4.243,4.243,0,0,1,52.2-9.89,4.163,4.163,0,0,1,54.27-10.46Z" transform="translate(187.5 4748)"/>
    </g>
  </g>
</svg>
