<?xml version="1.0" encoding="utf-8"?>
<!-- Generator: Adobe Illustrator 24.1.1, SVG Export Plug-In . SVG Version: 6.00 Build 0)  -->
<svg version="1.1" xmlns="http://www.w3.org/2000/svg" xmlns:xlink="http://www.w3.org/1999/xlink" x="0px" y="0px"
	 viewBox="0 0 258 50" enable-background="new 0 0 258 50" xml:space="preserve">
<path d="M17.03,3.56c2.43,0,4.55,0.51,6.37,1.54c1.81,1.02,3.22,2.45,4.22,4.29c1,1.83,1.5,3.97,1.5,6.4c0,2.39-0.5,4.54-1.5,6.46
	c-1,1.92-2.41,3.44-4.22,4.54c-1.81,1.11-3.94,1.66-6.37,1.66H2.83l0.26-0.45v19.07c0,0.34-0.14,0.64-0.42,0.9
	c-0.28,0.26-0.59,0.38-0.93,0.38c-0.43,0-0.76-0.13-0.99-0.38c-0.23-0.26-0.35-0.55-0.35-0.9V4.84c0-0.34,0.13-0.64,0.38-0.9
	c0.26-0.26,0.55-0.38,0.9-0.38H17.03z M17.03,25.9c1.96,0,3.64-0.44,5.02-1.31c1.39-0.87,2.46-2.08,3.23-3.62
	c0.77-1.54,1.15-3.26,1.15-5.18c0-1.96-0.38-3.66-1.15-5.09c-0.77-1.43-1.85-2.55-3.23-3.36C20.67,6.53,19,6.12,17.03,6.12H2.89
	L3.08,5.8v20.29L2.83,25.9H17.03z"/>
<path d="M38.6,48.36c-0.38,0-0.69-0.13-0.93-0.38c-0.23-0.26-0.35-0.55-0.35-0.9V17.7c0-0.34,0.13-0.64,0.38-0.9
	c0.26-0.26,0.55-0.38,0.9-0.38c0.38,0,0.69,0.13,0.93,0.38c0.23,0.26,0.35,0.55,0.35,0.9v10.82l-1.09,1.66
	c0-1.66,0.29-3.35,0.86-5.06c0.58-1.71,1.42-3.3,2.53-4.77c1.11-1.47,2.46-2.67,4.06-3.58c1.6-0.92,3.44-1.38,5.54-1.38
	c0.6,0,1.24,0.09,1.92,0.26c0.68,0.17,1.02,0.58,1.02,1.22c0,0.38-0.11,0.7-0.32,0.96c-0.21,0.26-0.49,0.38-0.83,0.38
	c-0.26,0-0.57-0.1-0.93-0.29c-0.36-0.19-0.89-0.29-1.57-0.29c-1.37,0-2.71,0.41-4.03,1.22c-1.32,0.81-2.53,1.89-3.62,3.23
	c-1.09,1.34-1.95,2.81-2.59,4.39c-0.64,1.58-0.96,3.11-0.96,4.61v16c0,0.34-0.13,0.64-0.38,0.9C39.24,48.23,38.94,48.36,38.6,48.36z
	"/>
<path d="M88.78,32.23c0,3.16-0.68,6.01-2.05,8.54c-1.37,2.54-3.23,4.54-5.6,6.02c-2.37,1.47-5.07,2.21-8.1,2.21
	c-2.99,0-5.67-0.74-8.06-2.21c-2.39-1.47-4.28-3.48-5.66-6.02c-1.39-2.54-2.08-5.38-2.08-8.54c0-3.2,0.69-6.07,2.08-8.61
	c1.39-2.54,3.27-4.54,5.66-6.02c2.39-1.47,5.08-2.21,8.06-2.21c3.03,0,5.73,0.74,8.1,2.21s4.23,3.48,5.6,6.02
	C88.1,26.16,88.78,29.03,88.78,32.23z M86.22,32.23c0-2.77-0.57-5.24-1.7-7.39c-1.13-2.15-2.69-3.86-4.67-5.12
	c-1.98-1.26-4.26-1.89-6.82-1.89c-2.52,0-4.78,0.63-6.78,1.89c-2.01,1.26-3.58,2.97-4.74,5.12c-1.15,2.15-1.73,4.62-1.73,7.39
	c0,2.73,0.58,5.17,1.73,7.33c1.15,2.15,2.73,3.86,4.74,5.12c2,1.26,4.27,1.89,6.78,1.89c2.56,0,4.83-0.63,6.82-1.89
	c1.98-1.26,3.54-2.96,4.67-5.12C85.65,37.41,86.22,34.96,86.22,32.23z"/>
<path d="M123.34,1c0.38,0,0.69,0.13,0.93,0.38c0.23,0.26,0.35,0.55,0.35,0.9v44.8c0,0.34-0.13,0.64-0.38,0.9
	c-0.26,0.26-0.55,0.38-0.9,0.38c-0.38,0-0.69-0.13-0.93-0.38c-0.23-0.26-0.35-0.55-0.35-0.9v-9.09l1.02-1.41
	c0,1.45-0.33,2.91-0.99,4.38c-0.66,1.47-1.6,2.81-2.82,4.03c-1.22,1.22-2.63,2.19-4.26,2.91c-1.62,0.72-3.37,1.09-5.25,1.09
	c-2.82,0-5.34-0.74-7.58-2.21c-2.24-1.47-4.01-3.48-5.31-6.02c-1.3-2.54-1.95-5.41-1.95-8.61s0.65-6.07,1.95-8.61
	c1.3-2.54,3.07-4.53,5.31-5.98c2.24-1.45,4.77-2.18,7.58-2.18c1.75,0,3.42,0.33,5.02,0.99c1.6,0.66,3.02,1.59,4.26,2.78
	c1.24,1.19,2.22,2.59,2.94,4.19c0.73,1.6,1.09,3.34,1.09,5.22l-1.02-1.6V2.28c0-0.34,0.12-0.64,0.35-0.9
	C122.64,1.13,122.95,1,123.34,1z M109.9,46.57c2.43,0,4.58-0.62,6.43-1.86c1.86-1.24,3.32-2.94,4.38-5.12
	c1.07-2.18,1.6-4.65,1.6-7.42s-0.53-5.24-1.6-7.39c-1.07-2.15-2.54-3.85-4.42-5.09c-1.88-1.24-4.01-1.86-6.4-1.86
	c-2.35,0-4.46,0.62-6.34,1.86c-1.88,1.24-3.36,2.93-4.45,5.09c-1.09,2.16-1.63,4.62-1.63,7.39c0,2.73,0.54,5.18,1.63,7.36
	c1.09,2.18,2.57,3.89,4.45,5.15C105.44,45.94,107.55,46.57,109.9,46.57z"/>
<path d="M160.39,16.42c0.38,0,0.69,0.13,0.93,0.38c0.23,0.26,0.35,0.55,0.35,0.9v18.62c0,4.14-1.16,7.24-3.49,9.31
	c-2.33,2.07-5.41,3.1-9.25,3.1c-3.8,0-6.86-1.04-9.18-3.1c-2.33-2.07-3.49-5.17-3.49-9.31V17.7c0-0.34,0.13-0.64,0.38-0.9
	c0.26-0.26,0.55-0.38,0.9-0.38c0.38,0,0.69,0.13,0.93,0.38s0.35,0.55,0.35,0.9v18.62c0,3.24,0.91,5.72,2.72,7.42
	c1.81,1.71,4.28,2.56,7.39,2.56c3.16,0,5.64-0.85,7.46-2.56s2.72-4.18,2.72-7.42V17.7c0-0.34,0.12-0.64,0.35-0.9
	C159.7,16.55,160.01,16.42,160.39,16.42z"/>
<path d="M186.18,15.4c1.92,0,3.72,0.21,5.41,0.64c1.69,0.43,3.05,0.99,4.1,1.7c1.04,0.7,1.57,1.44,1.57,2.21
	c0,0.3-0.12,0.59-0.35,0.86c-0.24,0.28-0.52,0.42-0.86,0.42c-0.47,0-0.84-0.13-1.12-0.38c-0.28-0.26-0.57-0.57-0.86-0.93
	c-0.3-0.36-0.77-0.69-1.41-0.99c-0.6-0.3-1.44-0.55-2.53-0.77c-1.09-0.21-2.42-0.32-4-0.32c-2.47,0-4.74,0.64-6.78,1.92
	c-2.05,1.28-3.68,3-4.9,5.15c-1.22,2.15-1.82,4.58-1.82,7.26c0,2.73,0.56,5.18,1.7,7.36c1.13,2.18,2.71,3.89,4.74,5.15
	c2.03,1.26,4.38,1.89,7.07,1.89c1.92,0,3.38-0.18,4.38-0.54c1-0.36,1.87-0.76,2.59-1.18c0.9-0.51,1.51-1,1.86-1.47
	c0.34-0.47,0.75-0.7,1.22-0.7c0.34,0,0.61,0.11,0.8,0.32c0.19,0.21,0.29,0.49,0.29,0.83c0,0.51-0.47,1.18-1.41,2.02
	s-2.25,1.57-3.94,2.21c-1.69,0.64-3.68,0.96-5.98,0.96c-3.11,0-5.87-0.74-8.26-2.21c-2.39-1.47-4.26-3.48-5.6-6.02
	c-1.34-2.54-2.02-5.41-2.02-8.61c0-2.99,0.67-5.75,2.02-8.29c1.34-2.54,3.22-4.59,5.63-6.14C180.11,16.18,182.94,15.4,186.18,15.4z"
	/>
<path d="M219.27,49c-3.2,0-6.03-0.68-8.48-2.05c-2.45-1.37-4.38-3.29-5.79-5.79s-2.11-5.43-2.11-8.8c0-3.58,0.69-6.63,2.08-9.15
	c1.39-2.52,3.18-4.45,5.38-5.79c2.2-1.34,4.53-2.02,7.01-2.02c1.79,0,3.54,0.29,5.25,0.86c1.71,0.58,3.23,1.47,4.58,2.69
	c1.34,1.22,2.43,2.73,3.26,4.54c0.83,1.81,1.29,3.98,1.38,6.5c0,0.34-0.13,0.65-0.38,0.93c-0.26,0.28-0.56,0.42-0.9,0.42h-26.11
	l-0.38-2.43h25.79l-0.64,0.58v-1.15c-0.21-2.26-0.93-4.16-2.14-5.7c-1.22-1.54-2.68-2.7-4.38-3.49c-1.71-0.79-3.48-1.18-5.31-1.18
	c-1.28,0-2.62,0.29-4.03,0.86s-2.71,1.45-3.9,2.62c-1.2,1.17-2.17,2.66-2.91,4.45c-0.75,1.79-1.12,3.88-1.12,6.27
	c0,2.6,0.52,4.99,1.57,7.17c1.04,2.18,2.6,3.93,4.67,5.25c2.07,1.32,4.62,1.98,7.65,1.98c1.45,0,2.82-0.25,4.1-0.74
	s2.43-1.14,3.46-1.95c1.02-0.81,1.86-1.68,2.5-2.62c0.34-0.38,0.7-0.58,1.09-0.58c0.3,0,0.55,0.12,0.77,0.35
	c0.21,0.24,0.32,0.5,0.32,0.8s-0.09,0.55-0.26,0.77c-1.32,1.71-3.02,3.2-5.09,4.48C224.08,48.36,221.79,49,219.27,49z"/>
<path d="M241.48,48.36c-0.38,0-0.69-0.13-0.93-0.38c-0.24-0.26-0.35-0.55-0.35-0.9V17.7c0-0.34,0.13-0.64,0.38-0.9
	c0.26-0.26,0.55-0.38,0.9-0.38c0.38,0,0.69,0.13,0.93,0.38s0.35,0.55,0.35,0.9v10.82l-1.09,1.66c0-1.66,0.29-3.35,0.86-5.06
	c0.58-1.71,1.42-3.3,2.53-4.77c1.11-1.47,2.46-2.67,4.06-3.58c1.6-0.92,3.44-1.38,5.54-1.38c0.6,0,1.24,0.09,1.92,0.26
	c0.68,0.17,1.02,0.58,1.02,1.22c0,0.38-0.11,0.7-0.32,0.96c-0.21,0.26-0.49,0.38-0.83,0.38c-0.26,0-0.57-0.1-0.93-0.29
	c-0.36-0.19-0.89-0.29-1.57-0.29c-1.37,0-2.71,0.41-4.03,1.22c-1.32,0.81-2.53,1.89-3.62,3.23c-1.09,1.34-1.95,2.81-2.59,4.39
	c-0.64,1.58-0.96,3.11-0.96,4.61v16c0,0.34-0.13,0.64-0.38,0.9C242.12,48.23,241.82,48.36,241.48,48.36z"/>
</svg>
