<svg xmlns="http://www.w3.org/2000/svg" width="300" height="100" viewBox="0 0 300 100">
  <g id="グループ_86" data-name="グループ 86" transform="translate(-3247 -2821)">
    <rect id="長方形_60" data-name="長方形 60" width="300" height="100" transform="translate(3247 2821)" fill="none"/>
    <path id="パス_19" data-name="パス 19" d="M18.05-35A9.69,9.69,0,0,1,23-33.725a8.89,8.89,0,0,1,3.425,3.55A10.636,10.636,0,0,1,27.65-25.05a11.078,11.078,0,0,1-1.225,5.2A9.286,9.286,0,0,1,23-16.15a9.274,9.274,0,0,1-4.95,1.35H7.7V-1.5A1.457,1.457,0,0,1,7.275-.425,1.457,1.457,0,0,1,6.2,0,1.457,1.457,0,0,1,5.125-.425,1.457,1.457,0,0,1,4.7-1.5v-32a1.457,1.457,0,0,1,.425-1.075A1.457,1.457,0,0,1,6.2-35Zm0,17.3a5.9,5.9,0,0,0,4.7-2.1,7.783,7.783,0,0,0,1.8-5.25,7.151,7.151,0,0,0-1.8-5.05,6.1,6.1,0,0,0-4.7-1.95H7.7V-17.7Zm42,15a1.469,1.469,0,0,1,.75,1.25,1.557,1.557,0,0,1-.2.65,1.453,1.453,0,0,1-.55.55,1.487,1.487,0,0,1-.75.2,1.688,1.688,0,0,1-.85-.2,5.639,5.639,0,0,1-2.25-2.6,14.341,14.341,0,0,1-.85-5.75q0-3.5-1.95-4.925a7.666,7.666,0,0,0-4.65-1.425H37.65V-1.5a1.506,1.506,0,0,1-.4,1.075A1.375,1.375,0,0,1,36.2,0,1.792,1.792,0,0,1,35-.425,1.35,1.35,0,0,1,34.5-1.5v-32a1.457,1.457,0,0,1,.425-1.075A1.457,1.457,0,0,1,36-35H49.5a10.491,10.491,0,0,1,5.1,1.225A9.038,9.038,0,0,1,58.125-30.4,9.326,9.326,0,0,1,59.4-25.55a9.653,9.653,0,0,1-1.675,5.625A8.459,8.459,0,0,1,53.35-16.6a7.664,7.664,0,0,1,3.6,2.875A8.722,8.722,0,0,1,58.4-8.8a18.231,18.231,0,0,0,.425,4.35A2.871,2.871,0,0,0,60.05-2.7Zm-10.4-15a6.827,6.827,0,0,0,3.25-1.15,7.255,7.255,0,0,0,2.4-2.7,8.21,8.21,0,0,0,.9-3.9,6.319,6.319,0,0,0-1.925-4.725A6.9,6.9,0,0,0,49.25-32.05H37.65V-17.7Zm49.05.2a19.614,19.614,0,0,1-2.15,9.25A16.166,16.166,0,0,1,90.6-1.825,16.239,16.239,0,0,1,81.95.5,16.238,16.238,0,0,1,73.3-1.825,16.166,16.166,0,0,1,67.35-8.25,19.614,19.614,0,0,1,65.2-17.5a19.722,19.722,0,0,1,2.15-9.3,15.989,15.989,0,0,1,5.95-6.4,16.373,16.373,0,0,1,8.65-2.3,16.373,16.373,0,0,1,8.65,2.3,15.989,15.989,0,0,1,5.95,6.4A19.723,19.723,0,0,1,98.7-17.5Zm-3.2,0a17.047,17.047,0,0,0-1.725-7.775,12.948,12.948,0,0,0-4.8-5.325,13.089,13.089,0,0,0-7.025-1.9,13.089,13.089,0,0,0-7.025,1.9,12.948,12.948,0,0,0-4.8,5.325A17.047,17.047,0,0,0,68.4-17.5a17.047,17.047,0,0,0,1.725,7.775,12.948,12.948,0,0,0,4.8,5.325A13.089,13.089,0,0,0,81.95-2.5a13.089,13.089,0,0,0,7.025-1.9,12.948,12.948,0,0,0,4.8-5.325A17.047,17.047,0,0,0,95.5-17.5ZM113.35.5a9.634,9.634,0,0,1-5.6-1.725A11.273,11.273,0,0,1,103.9-5.85a1.5,1.5,0,0,1-.25-.8,1.254,1.254,0,0,1,.475-1,1.562,1.562,0,0,1,1.025-.4,1.709,1.709,0,0,1,1.4.85,8.117,8.117,0,0,0,2.75,3.425A6.839,6.839,0,0,0,113.35-2.5a7.624,7.624,0,0,0,5.6-2.125A7.491,7.491,0,0,0,121.1-10.2V-33.5a1.415,1.415,0,0,1,.45-1.075A1.607,1.607,0,0,1,122.7-35a1.521,1.521,0,0,1,1.125.425,1.457,1.457,0,0,1,.425,1.075v23.3a10.886,10.886,0,0,1-1.4,5.5,9.94,9.94,0,0,1-3.875,3.825A11.386,11.386,0,0,1,113.35.5ZM153.5-2.95a1.415,1.415,0,0,1,1.075.45A1.481,1.481,0,0,1,155-1.45a1.375,1.375,0,0,1-.425,1.05A1.506,1.506,0,0,1,153.5,0H135.15a1.457,1.457,0,0,1-1.075-.425A1.457,1.457,0,0,1,133.65-1.5v-32a1.457,1.457,0,0,1,.425-1.075A1.457,1.457,0,0,1,135.15-35H153.5a1.457,1.457,0,0,1,1.075.425A1.457,1.457,0,0,1,155-33.5a1.375,1.375,0,0,1-.425,1.05,1.506,1.506,0,0,1-1.075.4H136.8V-19.5h14.45a1.457,1.457,0,0,1,1.075.425A1.457,1.457,0,0,1,152.75-18a1.375,1.375,0,0,1-.425,1.05,1.506,1.506,0,0,1-1.075.4H136.8v13.6ZM187.6-32.4a1.393,1.393,0,0,1,.75,1.25,1.907,1.907,0,0,1-.35,1,1.421,1.421,0,0,1-1.15.55,1.5,1.5,0,0,1-.8-.25,15.521,15.521,0,0,0-8.75-2.65,14.329,14.329,0,0,0-7.325,1.9,13.535,13.535,0,0,0-5.15,5.325A15.924,15.924,0,0,0,162.95-17.5a15.963,15.963,0,0,0,1.9,7.875,13.532,13.532,0,0,0,5.175,5.3A14.381,14.381,0,0,0,177.3-2.45a15.5,15.5,0,0,0,8.7-2.6,1.577,1.577,0,0,1,.85-.25,1.379,1.379,0,0,1,1.15.6,1.4,1.4,0,0,1,.35.95,1.3,1.3,0,0,1-.7,1.2,18.332,18.332,0,0,1-4.8,2.175A18.862,18.862,0,0,1,177.3.5a17.531,17.531,0,0,1-8.775-2.275,16.909,16.909,0,0,1-6.4-6.375,18.311,18.311,0,0,1-2.375-9.35,18.206,18.206,0,0,1,2.35-9.175,17.1,17.1,0,0,1,6.35-6.45,17.291,17.291,0,0,1,8.85-2.325,19.008,19.008,0,0,1,5.475.8A17.57,17.57,0,0,1,187.6-32.4ZM217-35a1.506,1.506,0,0,1,1.075.4,1.375,1.375,0,0,1,.425,1.05,1.3,1.3,0,0,1-.425,1.025A1.565,1.565,0,0,1,217-32.15H206.65V-1.5a1.415,1.415,0,0,1-.45,1.075A1.542,1.542,0,0,1,205.1,0a1.521,1.521,0,0,1-1.125-.425A1.457,1.457,0,0,1,203.55-1.5V-32.15H193.2a1.506,1.506,0,0,1-1.075-.4,1.375,1.375,0,0,1-.425-1.05,1.316,1.316,0,0,1,.425-1A1.506,1.506,0,0,1,193.2-35ZM24.4,25a1.454,1.454,0,0,1,1.5,1.5,1.4,1.4,0,0,1-.425,1.025,1.457,1.457,0,0,1-1.075.425H7.75V40.5h14.4a1.506,1.506,0,0,1,1.075.4,1.51,1.51,0,0,1,0,2.1,1.506,1.506,0,0,1-1.075.4H7.75V58.5A1.454,1.454,0,0,1,6.25,60a1.521,1.521,0,0,1-1.125-.425A1.457,1.457,0,0,1,4.7,58.5v-32A1.454,1.454,0,0,1,6.2,25ZM52.85,57.05a1.415,1.415,0,0,1,1.075.45,1.481,1.481,0,0,1,.425,1.05,1.375,1.375,0,0,1-.425,1.05,1.506,1.506,0,0,1-1.075.4H34.5A1.454,1.454,0,0,1,33,58.5v-32A1.454,1.454,0,0,1,34.5,25H52.85a1.454,1.454,0,0,1,1.5,1.5,1.375,1.375,0,0,1-.425,1.05,1.506,1.506,0,0,1-1.075.4H36.15V40.5H50.6A1.454,1.454,0,0,1,52.1,42a1.375,1.375,0,0,1-.425,1.05,1.506,1.506,0,0,1-1.075.4H36.15v13.6Zm18,3.45a15.932,15.932,0,0,1-6.375-1.2A17.9,17.9,0,0,1,59.1,55.55a1.514,1.514,0,0,1-.6-1.2,1.566,1.566,0,0,1,.475-1.1,1.45,1.45,0,0,1,1.075-.5,1.529,1.529,0,0,1,1.1.5,12.616,12.616,0,0,0,9.75,4.3,10.009,10.009,0,0,0,5.975-1.7A5.235,5.235,0,0,0,79.25,51.4a5.432,5.432,0,0,0-1.175-3.575A8.778,8.778,0,0,0,75,45.5a40.8,40.8,0,0,0-4.85-1.85,29.667,29.667,0,0,1-5.375-2.1,9.853,9.853,0,0,1-3.525-3.075A8.292,8.292,0,0,1,59.9,33.6a8.033,8.033,0,0,1,1.425-4.7,9.574,9.574,0,0,1,4-3.225A14.134,14.134,0,0,1,71.25,24.5a15.863,15.863,0,0,1,5.725,1.025A10.245,10.245,0,0,1,81.25,28.45,2.417,2.417,0,0,1,82,29.9a1.4,1.4,0,0,1-.5,1.025,1.566,1.566,0,0,1-1.1.475,1.157,1.157,0,0,1-.85-.35,9.84,9.84,0,0,0-3.6-2.6,11.449,11.449,0,0,0-4.7-1,10.083,10.083,0,0,0-5.95,1.625A5.138,5.138,0,0,0,63,33.5a5.112,5.112,0,0,0,2.2,4.45,23.451,23.451,0,0,0,6.3,2.85,38.061,38.061,0,0,1,5.8,2.15,9.545,9.545,0,0,1,3.675,3.125A9.066,9.066,0,0,1,82.4,51.4a7.8,7.8,0,0,1-1.475,4.625,9.989,9.989,0,0,1-4.1,3.275A14.22,14.22,0,0,1,70.85,60.5Z" transform="translate(3285.3 2858.5)" fill="#fff"/>
  </g>
</svg>
