<?xml version="1.0" encoding="utf-8"?>
<!-- Generator: Adobe Illustrator 24.1.1, SVG Export Plug-In . SVG Version: 6.00 Build 0)  -->
<svg version="1.1" xmlns="http://www.w3.org/2000/svg" xmlns:xlink="http://www.w3.org/1999/xlink" x="0px" y="0px"
	 viewBox="0 0 200 50" enable-background="new 0 0 200 50" xml:space="preserve">
<path d="M12.45,47.72c-2.77,0-5.23-0.83-7.36-2.5c-2.13-1.66-3.73-3.8-4.8-6.4c-0.09-0.26-0.13-0.47-0.13-0.64
	c0-0.38,0.14-0.67,0.42-0.86c0.28-0.19,0.56-0.29,0.86-0.29c0.34,0,0.6,0.07,0.77,0.22c0.17,0.15,0.32,0.35,0.45,0.61
	C3.47,40,4.75,41.75,6.5,43.11c1.75,1.37,3.73,2.05,5.95,2.05c2.22,0,4.13-0.45,5.73-1.34s2.85-2.15,3.74-3.78s1.34-3.52,1.34-5.7
	V3.56c0-0.34,0.13-0.64,0.38-0.9s0.6-0.38,1.02-0.38c0.38,0,0.69,0.13,0.93,0.38c0.23,0.26,0.35,0.55,0.35,0.9v30.78
	c0,2.65-0.57,4.98-1.7,7.01c-1.13,2.03-2.71,3.59-4.74,4.7C17.49,47.17,15.14,47.72,12.45,47.72z"/>
<path d="M66.98,30.95c0,3.16-0.68,6.01-2.05,8.54c-1.37,2.54-3.23,4.54-5.6,6.02c-2.37,1.47-5.07,2.21-8.1,2.21
	c-2.99,0-5.67-0.74-8.06-2.21c-2.39-1.47-4.28-3.48-5.66-6.02c-1.39-2.54-2.08-5.38-2.08-8.54c0-3.2,0.69-6.07,2.08-8.61
	c1.39-2.54,3.27-4.54,5.66-6.02c2.39-1.47,5.08-2.21,8.06-2.21c3.03,0,5.73,0.74,8.1,2.21s4.23,3.48,5.6,6.02
	C66.29,24.88,66.98,27.75,66.98,30.95z M64.42,30.95c0-2.77-0.57-5.24-1.7-7.39c-1.13-2.15-2.69-3.86-4.67-5.12
	c-1.98-1.26-4.26-1.89-6.82-1.89c-2.52,0-4.78,0.63-6.78,1.89c-2.01,1.26-3.58,2.97-4.74,5.12c-1.15,2.15-1.73,4.62-1.73,7.39
	c0,2.73,0.58,5.17,1.73,7.33c1.15,2.15,2.73,3.86,4.74,5.12c2,1.26,4.27,1.89,6.78,1.89c2.56,0,4.83-0.63,6.82-1.89
	c1.98-1.26,3.54-2.96,4.67-5.12C63.85,36.13,64.42,33.68,64.42,30.95z"/>
<path d="M76.64,9.77c-0.68,0-1.23-0.19-1.63-0.58C74.6,8.81,74.4,8.32,74.4,7.72V7.21c0-0.6,0.21-1.09,0.64-1.47
	c0.43-0.38,0.98-0.58,1.66-0.58c0.6,0,1.1,0.19,1.5,0.58c0.4,0.38,0.61,0.88,0.61,1.47v0.51c0,0.6-0.2,1.09-0.61,1.47
	C77.8,9.58,77.28,9.77,76.64,9.77z M77.92,45.8c0,0.34-0.13,0.64-0.38,0.9c-0.26,0.26-0.55,0.38-0.9,0.38
	c-0.38,0-0.69-0.13-0.93-0.38c-0.23-0.26-0.35-0.55-0.35-0.9V15.4c0-0.34,0.13-0.64,0.38-0.9c0.26-0.26,0.55-0.38,0.9-0.38
	c0.38,0,0.69,0.13,0.93,0.38c0.23,0.26,0.35,0.55,0.35,0.9V45.8z"/>
<path d="M103.07,14.12c2.69,0,4.87,0.53,6.56,1.6c1.69,1.07,2.92,2.52,3.71,4.35c0.79,1.83,1.18,3.88,1.18,6.14V45.8
	c0,0.34-0.13,0.64-0.38,0.9c-0.26,0.26-0.56,0.38-0.9,0.38c-0.38,0-0.7-0.13-0.93-0.38c-0.24-0.26-0.35-0.55-0.35-0.9V26.47
	c0-1.83-0.31-3.5-0.93-4.99c-0.62-1.49-1.6-2.69-2.94-3.58c-1.34-0.9-3.1-1.34-5.28-1.34c-1.88,0-3.71,0.45-5.5,1.34
	c-1.79,0.9-3.27,2.09-4.45,3.58c-1.17,1.49-1.76,3.16-1.76,4.99V45.8c0,0.34-0.13,0.64-0.38,0.9c-0.26,0.26-0.55,0.38-0.9,0.38
	c-0.38,0-0.69-0.13-0.93-0.38c-0.23-0.26-0.35-0.55-0.35-0.9V16.42c0-0.34,0.13-0.64,0.38-0.9c0.26-0.26,0.55-0.38,0.9-0.38
	c0.38,0,0.69,0.13,0.93,0.38c0.23,0.26,0.35,0.55,0.35,0.9v6.27l-1.6,3.07c0-1.54,0.4-3.01,1.22-4.42c0.81-1.41,1.88-2.66,3.2-3.74
	c1.32-1.09,2.78-1.94,4.38-2.56C99.9,14.43,101.49,14.12,103.07,14.12z"/>
<path d="M166.56,15.14c0.38,0,0.69,0.13,0.93,0.38c0.23,0.26,0.35,0.55,0.35,0.9v18.62c0,4.14-1.16,7.24-3.49,9.31
	c-2.33,2.07-5.41,3.1-9.25,3.1c-3.8,0-6.86-1.04-9.18-3.1c-2.33-2.07-3.49-5.17-3.49-9.31V16.42c0-0.34,0.13-0.64,0.38-0.9
	s0.55-0.38,0.9-0.38c0.38,0,0.69,0.13,0.93,0.38c0.23,0.26,0.35,0.55,0.35,0.9v18.62c0,3.24,0.91,5.72,2.72,7.42
	s4.28,2.56,7.39,2.56c3.16,0,5.64-0.85,7.46-2.56c1.81-1.71,2.72-4.18,2.72-7.42V16.42c0-0.34,0.12-0.64,0.35-0.9
	C165.86,15.27,166.17,15.14,166.56,15.14z"/>
<path d="M176.67,41.96c-0.3-0.51-0.44-0.93-0.42-1.25c0.02-0.32,0.18-0.59,0.48-0.8c0.21-0.21,0.5-0.31,0.86-0.29
	c0.36,0.02,0.67,0.18,0.93,0.48c1.11,1.58,2.53,2.86,4.26,3.84c1.73,0.98,3.77,1.47,6.11,1.47c1.41,0,2.76-0.23,4.06-0.7
	c1.3-0.47,2.37-1.17,3.2-2.11c0.83-0.94,1.25-2.09,1.25-3.46c0-1.45-0.41-2.61-1.22-3.49c-0.81-0.87-1.86-1.57-3.14-2.08
	c-1.28-0.51-2.62-0.94-4.03-1.28c-1.49-0.38-2.91-0.82-4.26-1.31s-2.53-1.11-3.55-1.86c-1.02-0.75-1.83-1.63-2.43-2.66
	s-0.9-2.24-0.9-3.65c0-1.66,0.45-3.16,1.34-4.48c0.9-1.32,2.15-2.36,3.78-3.1c1.62-0.75,3.5-1.12,5.63-1.12
	c1.03,0,2.11,0.13,3.26,0.38s2.3,0.69,3.46,1.31c1.15,0.62,2.22,1.48,3.2,2.59c0.34,0.26,0.5,0.57,0.48,0.93
	c-0.02,0.36-0.18,0.69-0.48,0.99c-0.26,0.17-0.53,0.26-0.83,0.26c-0.3,0-0.56-0.13-0.77-0.38c-1.11-1.24-2.4-2.15-3.87-2.75
	c-1.47-0.6-3.04-0.9-4.71-0.9c-1.41,0-2.72,0.24-3.94,0.7c-1.22,0.47-2.21,1.16-2.98,2.08c-0.77,0.92-1.15,2.08-1.15,3.49
	c0.08,1.32,0.54,2.41,1.38,3.26c0.83,0.86,1.94,1.56,3.33,2.11c1.39,0.55,2.95,1.07,4.7,1.54c1.41,0.34,2.72,0.74,3.94,1.18
	c1.21,0.45,2.28,1.01,3.2,1.7c0.92,0.68,1.64,1.54,2.18,2.56c0.53,1.03,0.8,2.3,0.8,3.84c0,1.79-0.48,3.34-1.44,4.64
	c-0.96,1.3-2.28,2.3-3.97,3.01c-1.69,0.71-3.62,1.06-5.79,1.06c-2.22,0-4.35-0.45-6.4-1.34S178.33,44.01,176.67,41.96z"/>
</svg>
