<?xml version="1.0" encoding="utf-8"?>
<!-- Generator: Adobe Illustrator 24.1.1, SVG Export Plug-In . SVG Version: 6.00 Build 0)  -->
<svg version="1.1" xmlns="http://www.w3.org/2000/svg" xmlns:xlink="http://www.w3.org/1999/xlink" x="0px" y="0px"
	 viewBox="0 0 156 50" enable-background="new 0 0 156 50" xml:space="preserve">
<path d="M2.03,4.71c-0.34,0-0.64-0.12-0.9-0.35S0.75,3.84,0.75,3.5c0-0.34,0.13-0.63,0.38-0.86c0.26-0.23,0.55-0.35,0.9-0.35h31.1
	c0.34,0,0.64,0.12,0.9,0.35c0.26,0.24,0.38,0.52,0.38,0.86c0,0.38-0.13,0.68-0.38,0.9c-0.26,0.21-0.56,0.32-0.9,0.32H2.03z
	 M17.58,47.08c-0.38,0-0.69-0.13-0.93-0.38c-0.23-0.26-0.35-0.55-0.35-0.9V3.82h2.56V45.8c0,0.34-0.13,0.64-0.38,0.9
	C18.22,46.95,17.93,47.08,17.58,47.08z"/>
<path d="M48.43,47.72c-3.2,0-6.03-0.68-8.48-2.05c-2.45-1.37-4.38-3.29-5.79-5.79c-1.41-2.5-2.11-5.43-2.11-8.8
	c0-3.58,0.69-6.63,2.08-9.15c1.39-2.52,3.18-4.45,5.38-5.79c2.2-1.34,4.53-2.02,7.01-2.02c1.79,0,3.54,0.29,5.25,0.86
	c1.71,0.58,3.23,1.47,4.58,2.69c1.34,1.22,2.43,2.73,3.26,4.54c0.83,1.81,1.29,3.98,1.38,6.5c0,0.34-0.13,0.65-0.38,0.93
	c-0.26,0.28-0.56,0.42-0.9,0.42H33.58l-0.38-2.43h25.79l-0.64,0.58v-1.15c-0.21-2.26-0.93-4.16-2.14-5.7
	c-1.22-1.54-2.68-2.7-4.38-3.49c-1.71-0.79-3.48-1.18-5.31-1.18c-1.28,0-2.62,0.29-4.03,0.86c-1.41,0.58-2.71,1.45-3.9,2.62
	c-1.2,1.17-2.17,2.66-2.91,4.45c-0.75,1.79-1.12,3.88-1.12,6.27c0,2.6,0.52,4.99,1.57,7.17c1.04,2.18,2.6,3.93,4.67,5.25
	c2.07,1.32,4.62,1.98,7.65,1.98c1.45,0,2.82-0.25,4.1-0.74c1.28-0.49,2.43-1.14,3.46-1.95c1.02-0.81,1.86-1.68,2.5-2.62
	c0.34-0.38,0.7-0.58,1.09-0.58c0.3,0,0.55,0.12,0.77,0.35c0.21,0.24,0.32,0.5,0.32,0.8s-0.09,0.55-0.26,0.77
	c-1.32,1.71-3.02,3.2-5.09,4.48C53.24,47.08,50.95,47.72,48.43,47.72z"/>
<path d="M95.79,15.14c0.38,0,0.69,0.13,0.93,0.38s0.35,0.55,0.35,0.9V45.8c0,0.34-0.13,0.64-0.38,0.9c-0.26,0.26-0.55,0.38-0.9,0.38
	c-0.38,0-0.69-0.13-0.93-0.38c-0.24-0.26-0.35-0.55-0.35-0.9v-9.09l1.02-0.83c0,1.37-0.34,2.75-1.02,4.16s-1.62,2.69-2.82,3.84
	c-1.2,1.15-2.6,2.08-4.22,2.78c-1.62,0.71-3.37,1.06-5.25,1.06c-2.86,0-5.41-0.75-7.65-2.24c-2.24-1.49-4-3.52-5.28-6.08
	c-1.28-2.56-1.92-5.44-1.92-8.64c0-3.24,0.65-6.11,1.95-8.61c1.3-2.5,3.07-4.46,5.31-5.89c2.24-1.43,4.77-2.14,7.58-2.14
	c1.83,0,3.56,0.33,5.18,0.99c1.62,0.66,3.04,1.59,4.26,2.78s2.17,2.59,2.85,4.19c0.68,1.6,1.02,3.34,1.02,5.22l-1.02-1.6v-9.28
	c0-0.34,0.12-0.64,0.35-0.9C95.1,15.27,95.41,15.14,95.79,15.14z M82.35,45.29c2.39,0,4.52-0.63,6.4-1.89
	c1.88-1.26,3.35-2.99,4.42-5.18c1.07-2.2,1.6-4.68,1.6-7.46c0-2.64-0.53-5.04-1.6-7.2c-1.07-2.15-2.54-3.86-4.42-5.12
	c-1.88-1.26-4.01-1.89-6.4-1.89c-2.35,0-4.46,0.61-6.34,1.82c-1.88,1.22-3.36,2.89-4.45,5.02c-1.09,2.13-1.63,4.59-1.63,7.36
	c0,2.78,0.53,5.26,1.6,7.46c1.07,2.2,2.54,3.93,4.42,5.18C77.83,44.66,79.96,45.29,82.35,45.29z"/>
<path d="M121.33,14.76c2.39,0,4.58,0.65,6.56,1.95c1.98,1.3,3.34,3.34,4.06,6.11l-0.83,0.58l0.32-1.22
	c0.55-1.41,1.52-2.67,2.91-3.78c1.39-1.11,2.94-1.99,4.67-2.66c1.73-0.66,3.4-0.99,5.02-0.99c2.56,0,4.67,0.56,6.34,1.66
	c1.66,1.11,2.89,2.59,3.68,4.45c0.79,1.86,1.18,3.96,1.18,6.3V45.8c0,0.34-0.12,0.64-0.35,0.9c-0.24,0.26-0.54,0.38-0.93,0.38
	s-0.69-0.13-0.93-0.38c-0.24-0.26-0.35-0.55-0.35-0.9V27.43c0-1.88-0.31-3.59-0.93-5.15c-0.62-1.56-1.58-2.79-2.88-3.71
	c-1.3-0.92-3-1.38-5.09-1.38c-1.83,0-3.63,0.46-5.38,1.38c-1.75,0.92-3.19,2.15-4.32,3.71c-1.13,1.56-1.7,3.27-1.7,5.15V45.8
	c0,0.34-0.12,0.64-0.35,0.9s-0.54,0.38-0.93,0.38s-0.69-0.13-0.93-0.38c-0.24-0.26-0.35-0.55-0.35-0.9V27.11
	c0-1.83-0.29-3.5-0.86-4.99c-0.58-1.49-1.48-2.69-2.72-3.58c-1.24-0.9-2.88-1.34-4.93-1.34c-1.79,0-3.53,0.45-5.22,1.34
	c-1.69,0.9-3.08,2.09-4.19,3.58c-1.11,1.49-1.66,3.16-1.66,4.99V45.8c0,0.34-0.13,0.64-0.38,0.9s-0.55,0.38-0.9,0.38
	c-0.38,0-0.69-0.13-0.93-0.38s-0.35-0.55-0.35-0.9V16.42c0-0.34,0.13-0.64,0.38-0.9s0.55-0.38,0.9-0.38c0.38,0,0.69,0.13,0.93,0.38
	c0.23,0.26,0.35,0.55,0.35,0.9v6.98l-1.92,3.26c0-1.49,0.36-2.94,1.09-4.35c0.73-1.41,1.7-2.68,2.91-3.81
	c1.22-1.13,2.6-2.04,4.16-2.72C118.05,15.1,119.66,14.76,121.33,14.76z"/>
</svg>
