<?xml version="1.0" encoding="utf-8"?>
<!-- Generator: Adobe Illustrator 24.1.1, SVG Export Plug-In . SVG Version: 6.00 Build 0)  -->
<svg version="1.1" xmlns="http://www.w3.org/2000/svg" xmlns:xlink="http://www.w3.org/1999/xlink" x="0px" y="0px"
	 viewBox="0 0 254 50" enable-background="new 0 0 254 50" xml:space="preserve">
<path d="M36.73,6.31c0.34,0.26,0.53,0.54,0.58,0.86c0.04,0.32-0.04,0.65-0.26,0.99c-0.21,0.3-0.48,0.46-0.8,0.48
	c-0.32,0.02-0.63-0.05-0.93-0.22c-1.79-1.24-3.74-2.22-5.86-2.94c-2.11-0.72-4.36-1.09-6.75-1.09c-2.73,0-5.28,0.5-7.65,1.5
	c-2.37,1-4.45,2.42-6.24,4.26c-1.79,1.83-3.2,4.01-4.22,6.53C3.58,19.2,3.07,21.97,3.07,25c0,3.03,0.51,5.8,1.54,8.32
	c1.02,2.52,2.43,4.7,4.22,6.53s3.87,3.25,6.24,4.26c2.37,1,4.92,1.5,7.65,1.5c2.39,0,4.63-0.36,6.72-1.09
	c2.09-0.73,4.03-1.69,5.82-2.88c0.3-0.21,0.62-0.3,0.96-0.26c0.34,0.04,0.62,0.21,0.83,0.51c0.21,0.3,0.3,0.62,0.26,0.96
	c-0.04,0.34-0.21,0.62-0.51,0.83c-1.02,0.72-2.32,1.43-3.87,2.11c-1.56,0.68-3.21,1.23-4.96,1.63c-1.75,0.4-3.5,0.61-5.25,0.61
	c-3.07,0-5.95-0.58-8.64-1.73s-5.06-2.76-7.1-4.83c-2.05-2.07-3.66-4.5-4.83-7.29C0.96,31.39,0.38,28.33,0.38,25
	c0-3.33,0.59-6.39,1.76-9.18c1.17-2.79,2.78-5.23,4.83-7.3c2.05-2.07,4.42-3.68,7.1-4.83s5.57-1.73,8.64-1.73
	c2.6,0,5.11,0.38,7.52,1.15C32.64,3.88,34.81,4.95,36.73,6.31z"/>
<path d="M74.17,31.27c0,3.16-0.68,6.01-2.05,8.54c-1.37,2.54-3.23,4.54-5.6,6.02c-2.37,1.47-5.07,2.21-8.1,2.21
	c-2.99,0-5.67-0.74-8.06-2.21c-2.39-1.47-4.28-3.48-5.66-6.02c-1.39-2.54-2.08-5.38-2.08-8.54c0-3.2,0.69-6.07,2.08-8.61
	c1.39-2.54,3.27-4.54,5.66-6.02c2.39-1.47,5.08-2.21,8.06-2.21c3.03,0,5.73,0.74,8.1,2.21s4.23,3.48,5.6,6.02
	C73.49,25.2,74.17,28.07,74.17,31.27z M71.61,31.27c0-2.77-0.57-5.24-1.7-7.39c-1.13-2.15-2.69-3.86-4.67-5.12
	c-1.98-1.26-4.26-1.89-6.82-1.89c-2.52,0-4.78,0.63-6.78,1.89c-2.01,1.26-3.58,2.97-4.74,5.12c-1.15,2.15-1.73,4.62-1.73,7.39
	c0,2.73,0.58,5.17,1.73,7.33c1.15,2.15,2.73,3.86,4.74,5.12c2,1.26,4.27,1.89,6.78,1.89c2.56,0,4.83-0.63,6.82-1.89
	c1.98-1.26,3.54-2.96,4.67-5.12C71.04,36.45,71.61,34,71.61,31.27z"/>
<path d="M97.08,14.44c2.69,0,4.87,0.53,6.56,1.6c1.69,1.07,2.92,2.52,3.71,4.35c0.79,1.83,1.18,3.88,1.18,6.14v19.58
	c0,0.34-0.13,0.64-0.38,0.9c-0.26,0.26-0.56,0.38-0.9,0.38c-0.38,0-0.69-0.13-0.93-0.38c-0.23-0.26-0.35-0.55-0.35-0.9V26.79
	c0-1.83-0.31-3.5-0.93-4.99c-0.62-1.49-1.6-2.69-2.94-3.58c-1.34-0.9-3.1-1.34-5.28-1.34c-1.88,0-3.71,0.45-5.5,1.34
	c-1.79,0.9-3.27,2.09-4.45,3.58c-1.17,1.49-1.76,3.16-1.76,4.99v19.33c0,0.34-0.13,0.64-0.38,0.9c-0.26,0.26-0.55,0.38-0.9,0.38
	c-0.38,0-0.69-0.13-0.93-0.38c-0.23-0.26-0.35-0.55-0.35-0.9V16.74c0-0.34,0.13-0.64,0.38-0.9c0.26-0.26,0.55-0.38,0.9-0.38
	c0.38,0,0.69,0.13,0.93,0.38c0.23,0.26,0.35,0.55,0.35,0.9v6.27l-1.6,3.07c0-1.54,0.4-3.01,1.22-4.42c0.81-1.41,1.88-2.66,3.2-3.74
	c1.32-1.09,2.78-1.94,4.38-2.56C93.91,14.75,95.5,14.44,97.08,14.44z"/>
<path d="M116.22,15.21h14.85c0.34,0,0.63,0.13,0.86,0.38c0.23,0.26,0.35,0.53,0.35,0.83c0,0.34-0.12,0.63-0.35,0.86
	c-0.23,0.24-0.52,0.35-0.86,0.35h-14.85c-0.3,0-0.58-0.13-0.83-0.38C115.13,17,115,16.72,115,16.42c0-0.34,0.13-0.63,0.38-0.86
	C115.64,15.33,115.92,15.21,116.22,15.21z M122.74,5.8c0.38,0,0.69,0.13,0.93,0.38c0.23,0.26,0.35,0.55,0.35,0.9v33.35
	c0,1.41,0.18,2.44,0.54,3.1c0.36,0.66,0.82,1.09,1.38,1.28c0.55,0.19,1.09,0.29,1.6,0.29c0.3,0,0.55-0.04,0.77-0.13
	c0.21-0.08,0.47-0.13,0.77-0.13c0.3,0,0.55,0.12,0.77,0.35c0.21,0.23,0.32,0.5,0.32,0.8c0,0.38-0.25,0.71-0.74,0.99
	c-0.49,0.28-1.1,0.42-1.82,0.42c-0.26,0-0.71-0.01-1.38-0.03c-0.66-0.02-1.37-0.21-2.11-0.58c-0.75-0.36-1.38-1.02-1.89-1.98
	c-0.51-0.96-0.77-2.38-0.77-4.26V7.08c0-0.34,0.13-0.64,0.38-0.9S122.4,5.8,122.74,5.8z"/>
<path d="M153.21,48.04c-3.2,0-6.03-0.68-8.48-2.05c-2.46-1.37-4.38-3.29-5.79-5.79s-2.11-5.43-2.11-8.8c0-3.58,0.69-6.63,2.08-9.15
	c1.39-2.52,3.18-4.45,5.38-5.79c2.2-1.34,4.53-2.02,7.01-2.02c1.79,0,3.54,0.29,5.25,0.86c1.71,0.58,3.23,1.47,4.58,2.69
	c1.34,1.22,2.43,2.73,3.26,4.54c0.83,1.81,1.29,3.98,1.38,6.5c0,0.34-0.13,0.65-0.38,0.93c-0.26,0.28-0.56,0.42-0.9,0.42h-26.11
	l-0.38-2.43h25.79l-0.64,0.58v-1.15c-0.21-2.26-0.93-4.16-2.14-5.7c-1.22-1.54-2.68-2.7-4.38-3.49c-1.71-0.79-3.48-1.18-5.31-1.18
	c-1.28,0-2.62,0.29-4.03,0.86s-2.71,1.45-3.9,2.62c-1.2,1.17-2.17,2.66-2.91,4.45c-0.75,1.79-1.12,3.88-1.12,6.27
	c0,2.6,0.52,4.99,1.57,7.17c1.04,2.18,2.6,3.93,4.67,5.25c2.07,1.32,4.62,1.98,7.65,1.98c1.45,0,2.82-0.25,4.1-0.74
	s2.43-1.14,3.46-1.95c1.02-0.81,1.86-1.68,2.5-2.62c0.34-0.38,0.7-0.58,1.09-0.58c0.3,0,0.55,0.12,0.77,0.35
	c0.21,0.24,0.32,0.5,0.32,0.8s-0.09,0.55-0.26,0.77c-1.32,1.71-3.02,3.2-5.09,4.48C158.02,47.4,155.73,48.04,153.21,48.04z"/>
<path d="M188.66,14.44c2.69,0,4.87,0.53,6.56,1.6c1.69,1.07,2.92,2.52,3.71,4.35c0.79,1.83,1.18,3.88,1.18,6.14v19.58
	c0,0.34-0.13,0.64-0.38,0.9c-0.26,0.26-0.56,0.38-0.9,0.38c-0.38,0-0.7-0.13-0.93-0.38c-0.24-0.26-0.35-0.55-0.35-0.9V26.79
	c0-1.83-0.31-3.5-0.93-4.99c-0.62-1.49-1.6-2.69-2.94-3.58c-1.34-0.9-3.1-1.34-5.28-1.34c-1.88,0-3.71,0.45-5.5,1.34
	c-1.79,0.9-3.27,2.09-4.45,3.58s-1.76,3.16-1.76,4.99v19.33c0,0.34-0.13,0.64-0.38,0.9c-0.26,0.26-0.55,0.38-0.9,0.38
	c-0.38,0-0.69-0.13-0.93-0.38c-0.24-0.26-0.35-0.55-0.35-0.9V16.74c0-0.34,0.13-0.64,0.38-0.9s0.55-0.38,0.9-0.38
	c0.38,0,0.69,0.13,0.93,0.38c0.23,0.26,0.35,0.55,0.35,0.9v6.27l-1.6,3.07c0-1.54,0.4-3.01,1.21-4.42c0.81-1.41,1.88-2.66,3.2-3.74
	c1.32-1.09,2.78-1.94,4.38-2.56C185.5,14.75,187.08,14.44,188.66,14.44z"/>
<path d="M207.8,15.21h14.85c0.34,0,0.63,0.13,0.86,0.38c0.23,0.26,0.35,0.53,0.35,0.83c0,0.34-0.12,0.63-0.35,0.86
	c-0.24,0.24-0.52,0.35-0.86,0.35H207.8c-0.3,0-0.58-0.13-0.83-0.38c-0.26-0.26-0.38-0.53-0.38-0.83c0-0.34,0.13-0.63,0.38-0.86
	S207.5,15.21,207.8,15.21z M214.33,5.8c0.38,0,0.69,0.13,0.93,0.38c0.23,0.26,0.35,0.55,0.35,0.9v33.35c0,1.41,0.18,2.44,0.54,3.1
	c0.36,0.66,0.82,1.09,1.38,1.28c0.55,0.19,1.09,0.29,1.6,0.29c0.3,0,0.55-0.04,0.77-0.13c0.21-0.08,0.47-0.13,0.77-0.13
	s0.55,0.12,0.77,0.35c0.21,0.23,0.32,0.5,0.32,0.8c0,0.38-0.25,0.71-0.74,0.99c-0.49,0.28-1.1,0.42-1.82,0.42
	c-0.26,0-0.71-0.01-1.38-0.03c-0.66-0.02-1.37-0.21-2.11-0.58c-0.75-0.36-1.38-1.02-1.89-1.98c-0.51-0.96-0.77-2.38-0.77-4.26V7.08
	c0-0.34,0.13-0.64,0.38-0.9S213.98,5.8,214.33,5.8z"/>
<path d="M230.45,42.28c-0.3-0.51-0.44-0.93-0.42-1.25s0.18-0.59,0.48-0.8c0.21-0.21,0.5-0.31,0.86-0.29
	c0.36,0.02,0.67,0.18,0.93,0.48c1.11,1.58,2.53,2.86,4.26,3.84c1.73,0.98,3.76,1.47,6.11,1.47c1.41,0,2.76-0.23,4.06-0.7
	c1.3-0.47,2.37-1.17,3.2-2.11c0.83-0.94,1.25-2.09,1.25-3.46c0-1.45-0.41-2.61-1.22-3.49c-0.81-0.87-1.86-1.57-3.14-2.08
	c-1.28-0.51-2.63-0.94-4.03-1.28c-1.49-0.38-2.91-0.82-4.26-1.31c-1.34-0.49-2.53-1.11-3.55-1.86c-1.02-0.75-1.84-1.63-2.43-2.66
	c-0.6-1.02-0.9-2.24-0.9-3.65c0-1.66,0.45-3.16,1.34-4.48c0.9-1.32,2.15-2.36,3.78-3.1c1.62-0.75,3.5-1.12,5.63-1.12
	c1.02,0,2.11,0.13,3.26,0.38s2.3,0.69,3.46,1.31c1.15,0.62,2.22,1.48,3.2,2.59c0.34,0.26,0.5,0.57,0.48,0.93
	c-0.02,0.36-0.18,0.69-0.48,0.99c-0.26,0.17-0.53,0.26-0.83,0.26c-0.3,0-0.55-0.13-0.77-0.38c-1.11-1.24-2.4-2.15-3.87-2.75
	c-1.47-0.6-3.04-0.9-4.7-0.9c-1.41,0-2.72,0.24-3.94,0.7c-1.22,0.47-2.21,1.16-2.98,2.08c-0.77,0.92-1.15,2.08-1.15,3.49
	c0.08,1.32,0.54,2.41,1.38,3.26c0.83,0.86,1.94,1.56,3.33,2.11c1.39,0.55,2.95,1.07,4.7,1.54c1.41,0.34,2.72,0.74,3.94,1.18
	c1.22,0.45,2.28,1.01,3.2,1.7c0.92,0.68,1.64,1.54,2.18,2.56c0.53,1.03,0.8,2.3,0.8,3.84c0,1.79-0.48,3.34-1.44,4.64
	c-0.96,1.3-2.28,2.3-3.97,3.01c-1.69,0.71-3.62,1.06-5.79,1.06c-2.22,0-4.35-0.45-6.4-1.34C233.97,45.8,232.12,44.33,230.45,42.28z"
	/>
</svg>
