<?xml version="1.0" encoding="utf-8"?>
<!-- Generator: Adobe Illustrator 24.1.1, SVG Export Plug-In . SVG Version: 6.00 Build 0)  -->
<svg version="1.1" xmlns="http://www.w3.org/2000/svg" xmlns:xlink="http://www.w3.org/1999/xlink" x="0px" y="0px"
	 viewBox="0 0 76 50" enable-background="new 0 0 76 50" xml:space="preserve">
<path d="M18.51,2.6c3.2,0,5.97,0.61,8.32,1.82c2.35,1.22,4.28,2.88,5.79,4.99c1.51,2.11,2.63,4.51,3.36,7.2
	c0.73,2.69,1.09,5.48,1.09,8.38c0,4.1-0.65,7.84-1.95,11.23c-1.3,3.39-3.32,6.1-6.05,8.13c-2.73,2.03-6.25,3.04-10.56,3.04H1.87
	c-0.34,0-0.64-0.13-0.9-0.38c-0.26-0.26-0.38-0.55-0.38-0.9V3.88c0-0.34,0.13-0.64,0.38-0.9C1.23,2.73,1.53,2.6,1.87,2.6H18.51z
	 M17.87,44.84c3.92,0,7.09-0.89,9.5-2.66c2.41-1.77,4.18-4.16,5.31-7.17c1.13-3.01,1.7-6.35,1.7-10.02c0-2.6-0.31-5.1-0.93-7.49
	c-0.62-2.39-1.59-4.51-2.91-6.37c-1.32-1.86-3.03-3.32-5.12-4.38c-2.09-1.07-4.61-1.6-7.55-1.6H2.9l0.38-0.51v40.77L2.9,44.84H17.87
	z"/>
<path d="M63.31,2.6c2.43,0,4.55,0.51,6.37,1.54c1.81,1.02,3.22,2.45,4.22,4.29c1,1.83,1.5,3.97,1.5,6.4c0,2.39-0.5,4.54-1.5,6.46
	c-1,1.92-2.41,3.44-4.22,4.54c-1.81,1.11-3.94,1.66-6.37,1.66H49.1l0.26-0.45v19.07c0,0.34-0.14,0.64-0.42,0.9
	c-0.28,0.26-0.59,0.38-0.93,0.38c-0.43,0-0.76-0.13-0.99-0.38c-0.23-0.26-0.35-0.55-0.35-0.9V3.88c0-0.34,0.13-0.64,0.38-0.9
	c0.26-0.26,0.55-0.38,0.9-0.38H63.31z M63.31,24.94c1.96,0,3.64-0.44,5.02-1.31c1.39-0.87,2.46-2.08,3.23-3.62
	c0.77-1.54,1.15-3.26,1.15-5.18c0-1.96-0.38-3.66-1.15-5.09c-0.77-1.43-1.85-2.55-3.23-3.36c-1.39-0.81-3.06-1.22-5.02-1.22H49.17
	l0.19-0.32v20.29l-0.26-0.19H63.31z"/>
</svg>
